<svg width="76" height="76" viewBox="0 0 76 76" fill="none" xmlns="http://www.w3.org/2000/svg">
<circle cx="38" cy="38" r="38" fill="white"/>
<path d="M6.25189 37.22C15.9636 27.504 25.6473 17.816 35.331 8.1C36.0307 7.4 36.6744 6.7 37.3461 6H37.6259C39.1653 7.568 40.6766 9.108 42.2159 10.676C43.8112 12.272 43.8112 12.244 42.2719 13.784C34.9671 21.092 27.6344 28.4 20.3016 35.736C19.0702 36.968 19.0702 37.024 20.3296 38.284C25.6193 43.548 30.9089 48.812 36.1426 54.132C37.1502 55.168 37.7659 55.112 38.7454 54.104C42.9156 49.848 47.1697 45.648 51.3958 41.42C51.9276 40.86 52.3754 40.356 53.243 41.112C54.0267 41.784 54.7263 41.392 54.7543 40.272C54.8103 37.948 54.7823 35.596 54.7543 33.272C54.7543 32.432 54.3065 31.984 53.4389 31.984C51.1159 31.984 48.765 31.956 46.442 32.012C46.0502 32.012 45.6024 32.348 45.3505 32.656C45.2386 32.796 45.4625 33.384 45.6864 33.58C46.498 34.308 46.2741 34.868 45.6024 35.54C43.3354 37.752 41.1244 40.02 38.8574 42.26C38.2697 42.848 37.598 43.408 37.7379 44.304L38.1297 44.696C38.4936 45.06 38.2417 45.704 37.7099 45.704H29.5935C29.2857 45.704 29.0618 45.452 29.0618 45.144L29.2297 39.404L29.2857 37.276V37.22C29.3136 36.716 29.9294 36.464 30.2932 36.828L30.8809 37.416C31.6926 37.444 32.2803 36.548 32.896 35.932C38.2976 30.528 43.7272 25.124 49.1008 19.692C49.6886 19.076 50.6681 19.104 51.2559 19.692C54.4745 22.996 57.749 26.244 61.0235 29.52C63.6824 32.152 66.3412 34.784 69 37.388C68.972 37.5 68.972 37.528 68.972 37.64C68.8881 37.668 68.8041 37.696 68.7481 37.78C59.3723 47.16 49.9964 56.54 40.6486 65.92C39.641 66.928 38.6335 67.992 37.6539 69C37.542 69 37.486 68.972 37.3461 68.972C37.2901 68.86 37.2341 68.748 37.1222 68.664C30.3492 61.888 23.5762 55.112 16.7752 48.364C13.1928 44.78 9.58241 41.196 6 37.64" fill="#DE5959"/>
</svg>
