<svg width="304" height="278" viewBox="0 0 304 278" fill="none" xmlns="http://www.w3.org/2000/svg">
<path d="M149.645 136.769L123.558 121.433C122.53 120.84 121.305 121.71 121.305 123.014V130.721V134.121V145.623V156.018C121.305 156.65 121.621 157.283 122.095 157.599C122.095 157.599 150.475 172.184 150.475 170.84V138.35C150.514 137.717 150.198 137.085 149.645 136.769Z" fill="white"/>
<path d="M150.396 171.393C149.645 171.393 147.115 170.563 135.692 164.951C128.814 161.591 122.016 158.073 121.937 158.034L121.897 157.994C121.305 157.599 120.909 156.848 120.909 156.057V145.662V134.16V130.761V123.053C120.909 122.223 121.305 121.433 121.977 121.077C122.569 120.761 123.202 120.761 123.795 121.077L149.882 136.413C150.554 136.808 150.949 137.559 150.949 138.389V170.88C150.949 171.077 150.87 171.235 150.712 171.314C150.633 171.354 150.554 171.393 150.396 171.393ZM122.332 157.243C131.977 162.184 147.471 169.891 150.079 170.484V138.389C150.079 137.876 149.842 137.401 149.447 137.164L123.36 121.828C123.044 121.63 122.728 121.63 122.411 121.828C122.016 122.065 121.779 122.54 121.779 123.053V130.761V134.16V145.662V156.057C121.779 156.571 121.977 157.006 122.332 157.243Z" fill="white"/>
<path d="M150.554 135.267L124.467 119.931C123.478 119.338 122.293 119.338 121.305 119.931C120.237 120.563 119.565 121.749 119.565 123.093V130.603C119.565 131.591 120.356 132.381 121.344 132.381C122.332 132.381 123.123 131.591 123.123 130.603V126.374C123.123 124.99 124.625 124.16 125.81 124.832L148.735 138.31C148.735 138.31 148.735 138.35 148.735 138.389V165.899C148.735 167.204 147.392 168.034 146.245 167.52C140.949 165.109 131.66 160.563 123.123 156.176C123.123 156.176 123.123 156.136 123.123 156.097V145.623C123.123 144.634 122.332 143.844 121.344 143.844C120.356 143.844 119.565 144.634 119.565 145.623V156.057C119.565 157.283 120.158 158.468 121.146 159.101L121.305 159.18C121.384 159.219 128.182 162.737 135.099 166.097C139.131 168.073 142.411 169.654 144.862 170.721C148.103 172.184 149.526 172.698 150.435 172.698C150.83 172.698 151.147 172.579 151.423 172.421C151.977 172.065 152.293 171.472 152.293 170.84V138.35C152.293 137.085 151.621 135.86 150.554 135.267Z" fill="#6600B3"/>
<path d="M150.396 173.172C149.447 173.172 148.063 172.698 144.664 171.156C142.253 170.089 138.973 168.508 134.901 166.532C128.024 163.133 121.186 159.654 121.107 159.615L120.949 159.496C119.842 158.785 119.131 157.441 119.131 156.057V145.623C119.131 144.397 120.119 143.409 121.344 143.409C122.569 143.409 123.558 144.397 123.558 145.623V155.86C132.49 160.445 141.423 164.832 146.443 167.085C146.878 167.283 147.312 167.243 147.708 167.006C148.103 166.769 148.34 166.334 148.34 165.86V138.508L125.613 125.148C125.178 124.911 124.704 124.911 124.269 125.148C123.834 125.385 123.597 125.82 123.597 126.295V130.524C123.597 131.749 122.609 132.737 121.384 132.737C120.158 132.737 119.17 131.749 119.17 130.524V123.014C119.17 121.551 119.921 120.168 121.146 119.496C122.293 118.864 123.637 118.864 124.743 119.536L150.83 134.872C152.016 135.583 152.767 136.927 152.767 138.389V170.88C152.767 171.67 152.332 172.421 151.66 172.816C151.226 173.053 150.83 173.172 150.396 173.172ZM121.344 144.318C120.593 144.318 120 144.911 120 145.662V156.097C120 157.204 120.554 158.231 121.384 158.785L121.502 158.864C121.542 158.903 128.38 162.382 135.257 165.781C139.289 167.757 142.569 169.338 144.98 170.405C149.565 172.461 150.356 172.579 151.146 172.105C151.581 171.868 151.818 171.393 151.818 170.88V138.389C151.818 137.243 151.226 136.176 150.316 135.623L124.229 120.287C123.36 119.773 122.372 119.773 121.502 120.287C120.554 120.84 119.961 121.907 119.961 123.053V130.563C119.961 131.314 120.554 131.907 121.305 131.907C122.056 131.907 122.648 131.314 122.648 130.563V126.334C122.648 125.544 123.083 124.832 123.755 124.437C124.467 124.042 125.297 124.042 125.969 124.437L149.052 137.994L149.091 138.152C149.131 138.231 149.131 138.31 149.131 138.389V165.899C149.131 166.65 148.735 167.362 148.103 167.757C147.471 168.152 146.68 168.231 146.008 167.915C140.949 165.623 131.897 161.196 122.886 156.571L122.727 156.492L122.688 156.295C122.688 156.215 122.648 156.176 122.648 156.097V145.623C122.688 144.911 122.056 144.318 121.344 144.318Z" fill="#6600B3"/>
<path d="M177.747 120.563L152.767 136.136C152.253 136.453 151.581 137.085 151.581 137.757L151.542 170.88C151.542 171.631 178.143 157.955 179.17 157.322C179.645 157.006 179.921 156.413 179.921 155.741V122.223C179.882 120.84 178.735 119.97 177.747 120.563Z" fill="#D7CBF7"/>
<path d="M151.463 171.472C151.344 171.472 151.265 171.433 151.186 171.393L150.87 171.235V170.88L150.909 137.757C150.909 136.65 152.056 135.86 152.411 135.623L177.392 120.049C177.984 119.694 178.656 119.654 179.249 120.01C179.961 120.405 180.435 121.235 180.435 122.184V155.702C180.435 156.532 180.04 157.362 179.407 157.757C178.814 158.113 171.818 161.749 165.376 164.951C154.269 170.642 152.095 171.472 151.463 171.472ZM178.064 121.077L153.083 136.65C152.609 136.927 152.174 137.401 152.174 137.757L152.135 170.129C156.206 168.547 177.55 157.599 178.854 156.808C179.131 156.611 179.328 156.176 179.328 155.741V122.223C179.328 121.71 179.091 121.275 178.775 121.077C178.577 120.959 178.34 120.919 178.064 121.077Z" fill="#6600B3"/>
<path d="M151.542 172.658C151.226 172.658 150.949 172.579 150.633 172.421C150.079 172.105 149.724 171.512 149.724 170.84L149.763 137.717C149.763 135.978 151.344 134.872 151.818 134.595L176.799 119.022C177.747 118.429 178.894 118.389 179.882 118.943C180.988 119.536 181.66 120.8 181.66 122.144V155.662C181.66 156.927 181.107 158.034 180.119 158.706L180.04 158.745C179.368 159.14 172.174 162.856 165.969 165.978C162.135 167.915 159.012 169.417 156.72 170.524C155.376 171.156 154.309 171.67 153.518 171.986C152.767 172.381 152.135 172.658 151.542 172.658ZM153.32 137.955L153.281 168.31C159.368 165.544 176.206 156.927 178.103 155.86C178.103 155.82 178.143 155.781 178.143 155.741V122.46L153.716 137.678C153.518 137.757 153.399 137.876 153.32 137.955Z" fill="#6600B3"/>
<path d="M151.542 173.251C151.107 173.251 150.712 173.132 150.356 172.935C149.605 172.5 149.131 171.71 149.131 170.84L149.17 137.717C149.17 135.702 150.949 134.437 151.502 134.081L176.483 118.508C177.629 117.796 179.012 117.757 180.158 118.429C181.463 119.14 182.253 120.563 182.253 122.144V155.662C182.253 157.125 181.581 158.429 180.475 159.18L180.356 159.259C179.684 159.694 172.569 163.33 166.245 166.532C162.411 168.468 159.289 170.01 156.996 171.077C155.652 171.71 154.546 172.223 153.795 172.54C152.965 172.974 152.253 173.251 151.542 173.251ZM178.419 119.18C177.984 119.18 177.51 119.298 177.115 119.575L152.135 135.148C151.739 135.425 150.356 136.374 150.356 137.757L150.316 170.88C150.316 171.314 150.554 171.71 150.949 171.947C151.581 172.302 152.253 171.986 153.32 171.551C154.071 171.235 155.139 170.761 156.482 170.089C158.775 168.982 161.897 167.48 165.731 165.544C171.937 162.421 179.131 158.745 179.763 158.35L179.842 158.31C180.633 157.757 181.107 156.808 181.107 155.741V122.223C181.107 121.077 180.554 120.049 179.645 119.536C179.21 119.298 178.814 119.18 178.419 119.18ZM152.688 169.219L152.728 137.717L152.886 137.559C152.965 137.48 153.123 137.322 153.399 137.125L178.38 121.551C178.38 121.551 178.38 121.551 178.419 121.551L178.735 121.354V121.472C179.052 121.472 179.289 121.749 179.289 122.065C179.289 122.381 179.052 122.658 178.735 122.658V155.702C178.735 155.82 178.735 155.939 178.696 156.018L178.617 156.215L178.419 156.334C176.364 157.48 159.486 166.097 153.558 168.785L152.688 169.219ZM153.913 138.192L153.874 167.362C160.316 164.358 174.862 156.887 177.51 155.465V123.449L153.992 138.113C153.953 138.152 153.953 138.192 153.913 138.192Z" fill="#6600B3"/>
<path d="M179.052 120.049L151.423 107.006C150.909 106.729 150.277 106.729 149.803 107.006L122.174 120.049C121.028 120.642 121.067 122.105 122.253 122.658L149.882 136.808C150.356 137.006 150.909 137.006 151.384 136.808L179.012 122.658C180.158 122.105 180.198 120.642 179.052 120.049Z" fill="#EFE8F9"/>
<path d="M150.593 137.559C150.237 137.559 149.921 137.48 149.605 137.362L121.937 123.211C121.226 122.895 120.751 122.184 120.712 121.393C120.712 120.642 121.146 119.931 121.858 119.536L149.526 106.492C150.198 106.136 151.028 106.136 151.7 106.492L179.328 119.536C180.04 119.891 180.514 120.603 180.475 121.393C180.475 122.184 179.961 122.856 179.21 123.211L151.581 137.362C151.305 137.48 150.949 137.559 150.593 137.559ZM150.593 107.401C150.396 107.401 150.198 107.441 150.04 107.52L122.372 120.563C122.056 120.721 121.858 120.998 121.897 121.314C121.897 121.63 122.095 121.907 122.451 122.065L150.119 136.215C150.396 136.334 150.791 136.334 151.107 136.215L178.735 122.065C179.091 121.907 179.289 121.63 179.328 121.275C179.328 120.959 179.17 120.682 178.815 120.524L151.186 107.48C150.988 107.441 150.791 107.401 150.593 107.401Z" fill="#6600B3"/>
<path d="M150.593 138.745C150.079 138.745 149.565 138.627 149.131 138.429L149.052 138.389L121.423 124.239C120.277 123.686 119.565 122.619 119.526 121.393C119.486 120.168 120.198 119.022 121.305 118.468L121.344 118.429L148.973 105.385C149.961 104.872 151.186 104.872 152.174 105.385L179.842 118.468C180.988 119.061 181.66 120.168 181.621 121.393C181.581 122.619 180.87 123.686 179.724 124.239L152.095 138.389H152.056C151.621 138.627 151.107 138.745 150.593 138.745ZM150.593 135.188L177.629 121.354L150.593 108.587L150.554 108.627L123.558 121.354L150.593 135.188Z" fill="#6600B3"/>
<path d="M150.593 139.338C150 139.338 149.407 139.219 148.854 138.982L148.775 138.943L121.146 124.793C119.803 124.16 118.972 122.895 118.933 121.433C118.893 119.97 119.723 118.626 121.028 117.955L121.107 117.915L148.735 104.872C149.882 104.279 151.305 104.279 152.451 104.872L180.119 117.915C181.463 118.627 182.293 119.931 182.253 121.393C182.214 122.816 181.344 124.121 180 124.753L152.293 138.943C151.779 139.219 151.186 139.338 150.593 139.338ZM150.593 105.623C150.119 105.623 149.684 105.741 149.249 105.939L121.581 119.022C120.672 119.496 120.079 120.405 120.119 121.393C120.158 122.381 120.751 123.251 121.66 123.725L149.368 137.915C150.119 138.271 151.028 138.271 151.818 137.915H151.858L179.486 123.765C180.435 123.33 181.028 122.421 181.067 121.433C181.107 120.445 180.514 119.536 179.605 119.022L151.937 105.978C151.542 105.702 151.067 105.623 150.593 105.623ZM150.751 135.781L150.435 135.741L150.356 135.702L122.253 121.314L150.237 108.113L150.395 107.796L179.012 121.314L150.751 135.781ZM124.901 121.354L150.593 134.516L176.285 121.354L150.593 109.219L124.901 121.354Z" fill="#6600B3"/>
<path d="M121.305 140.524C122.811 140.524 124.032 139.303 124.032 137.796C124.032 136.29 122.811 135.069 121.305 135.069C119.798 135.069 118.577 136.29 118.577 137.796C118.577 139.303 119.798 140.524 121.305 140.524Z" fill="#8C43FF"/>
<path d="M279.882 111.71L261.463 100.88C260.751 100.445 259.882 101.077 259.882 102.026V107.48V109.891V117.994V125.346C259.882 125.82 260.079 126.215 260.435 126.453C260.435 126.453 280.475 136.769 280.475 135.781V112.856C280.475 112.381 280.238 111.947 279.882 111.71Z" fill="white"/>
<path d="M280.356 136.136C279.842 136.136 278.064 135.544 270 131.591C265.139 129.219 260.356 126.729 260.277 126.729H260.238C259.803 126.453 259.526 125.939 259.526 125.385V118.034V109.931V107.52V102.065C259.526 101.472 259.803 100.919 260.277 100.682C260.672 100.445 261.147 100.445 261.542 100.682L279.961 111.512C280.435 111.789 280.712 112.302 280.712 112.895V135.82C280.712 135.939 280.633 136.057 280.554 136.136C280.554 136.097 280.475 136.136 280.356 136.136ZM260.593 126.176C267.392 129.654 278.34 135.109 280.159 135.504V112.856C280.159 112.5 280 112.144 279.724 111.986L261.305 101.156C261.107 101.038 260.87 101.038 260.633 101.156C260.356 101.314 260.159 101.63 260.159 102.026V107.48V109.891V117.994V125.346C260.198 125.702 260.317 126.018 260.593 126.176Z" fill="white"/>
<path d="M280.514 110.642L262.095 99.8123C261.384 99.4171 260.554 99.4171 259.882 99.8123C259.131 100.247 258.657 101.117 258.657 102.026V107.322C258.657 108.034 259.21 108.587 259.921 108.587C260.633 108.587 261.186 108.034 261.186 107.322V104.318C261.186 103.33 262.253 102.737 263.083 103.251L279.289 112.777C279.289 112.777 279.289 112.816 279.289 112.856V132.263C279.289 133.172 278.34 133.765 277.51 133.409C273.755 131.71 267.234 128.508 261.186 125.385V125.346V117.994C261.186 117.283 260.633 116.729 259.921 116.729C259.21 116.729 258.657 117.283 258.657 117.994V125.346C258.657 126.215 259.091 127.046 259.803 127.48L259.921 127.559C259.961 127.599 264.783 130.049 269.645 132.461C272.491 133.883 274.823 134.951 276.522 135.741C278.815 136.769 279.803 137.125 280.435 137.125C280.712 137.125 280.949 137.046 281.147 136.927C281.542 136.69 281.779 136.255 281.779 135.82V112.895C281.7 111.947 281.265 111.077 280.514 110.642Z" fill="#6600B3"/>
<path d="M280.396 137.401C279.724 137.401 278.736 137.046 276.364 135.978C274.664 135.227 272.333 134.121 269.487 132.698C264.625 130.326 259.803 127.836 259.763 127.797L259.645 127.717C258.854 127.204 258.38 126.295 258.38 125.306V117.955C258.38 117.085 259.091 116.413 259.921 116.413C260.791 116.413 261.463 117.125 261.463 117.955V125.188C267.748 128.429 274.072 131.512 277.589 133.093C277.906 133.212 278.222 133.212 278.498 133.014C278.775 132.856 278.933 132.54 278.933 132.223V112.935L262.886 103.488C262.57 103.33 262.253 103.33 261.937 103.488C261.621 103.646 261.463 103.963 261.463 104.318V107.322C261.463 108.192 260.751 108.864 259.921 108.864C259.052 108.864 258.38 108.152 258.38 107.322V102.026C258.38 100.998 258.933 100.049 259.763 99.5357C260.554 99.0613 261.502 99.1009 262.293 99.5357L280.712 110.366C281.542 110.88 282.095 111.789 282.095 112.856V135.781C282.095 136.334 281.819 136.848 281.305 137.164C280.949 137.322 280.712 137.401 280.396 137.401ZM259.882 117.046C259.368 117.046 258.933 117.48 258.933 117.994V125.346C258.933 126.136 259.328 126.848 259.921 127.243L260 127.283C260.04 127.283 264.862 129.773 269.684 132.144C272.53 133.528 274.862 134.634 276.562 135.425C279.803 136.887 280.356 136.966 280.91 136.611C281.186 136.413 281.384 136.097 281.384 135.741V112.816C281.384 111.986 280.989 111.275 280.317 110.88L261.898 100.049C261.305 99.6937 260.593 99.6937 259.961 100.049C259.289 100.445 258.894 101.196 258.894 101.986V107.283C258.894 107.797 259.328 108.231 259.842 108.231C260.356 108.231 260.791 107.797 260.791 107.283V104.279C260.791 103.725 261.068 103.212 261.582 102.935C262.056 102.658 262.649 102.658 263.163 102.935L279.447 112.5L279.487 112.619C279.526 112.658 279.526 112.737 279.526 112.777V132.184C279.526 132.698 279.249 133.212 278.815 133.488C278.38 133.765 277.827 133.804 277.313 133.607C273.755 131.986 267.352 128.864 260.989 125.583L260.87 125.504L260.83 125.385C260.83 125.346 260.791 125.306 260.791 125.227V117.876C260.831 117.441 260.396 117.046 259.882 117.046Z" fill="#6600B3"/>
<path d="M299.684 100.287L282.056 111.275C281.7 111.512 281.186 111.947 281.186 112.421L281.147 135.781C281.147 136.295 299.921 126.69 300.633 126.215C300.949 125.978 301.147 125.544 301.147 125.109V101.433C301.186 100.484 300.356 99.8518 299.684 100.287Z" fill="#D7CBF7"/>
<path d="M281.147 136.374C281.028 136.374 280.949 136.334 280.87 136.295L280.554 136.136V135.781L280.593 112.421C280.593 111.551 281.463 110.959 281.74 110.761L299.368 99.7728C299.842 99.4961 300.396 99.4566 300.87 99.7332C301.423 100.049 301.779 100.682 301.779 101.433V125.109C301.779 125.781 301.463 126.374 300.989 126.729C300.554 127.006 295.613 129.536 291.068 131.828C283.281 135.702 281.661 136.374 281.147 136.374ZM300.001 100.8L282.372 111.789C282.016 111.986 281.819 112.302 281.819 112.421L281.779 134.99C285.099 133.607 299.487 126.255 300.396 125.702C300.554 125.623 300.633 125.346 300.633 125.109V101.433C300.633 101.077 300.475 100.879 300.317 100.8C300.198 100.721 300.08 100.721 300.001 100.8Z" fill="#6600B3"/>
<path d="M281.186 137.046C280.989 137.046 280.752 137.006 280.554 136.887C280.159 136.65 279.921 136.255 279.921 135.781L279.961 112.421C279.961 111.196 281.068 110.445 281.384 110.208L299.012 99.2194C299.684 98.7846 300.475 98.7846 301.186 99.1799C301.977 99.6147 302.451 100.484 302.451 101.433V125.109C302.451 125.978 302.056 126.808 301.384 127.243L301.305 127.283C300.831 127.559 295.771 130.168 291.384 132.381C288.696 133.725 286.483 134.832 284.862 135.583C283.914 136.018 283.163 136.374 282.609 136.611C282.056 136.848 281.621 137.046 281.186 137.046ZM282.451 112.54L282.412 133.963C286.72 131.986 298.578 125.899 299.922 125.188C299.922 125.148 299.922 125.148 299.922 125.109V101.63L282.688 112.381C282.609 112.421 282.491 112.5 282.451 112.54Z" fill="#6600B3"/>
<path d="M281.186 137.638C280.87 137.638 280.554 137.559 280.277 137.401C279.684 137.085 279.329 136.453 279.329 135.781L279.368 112.421C279.368 110.919 280.672 109.97 281.107 109.733L298.736 98.7451C299.605 98.2313 300.633 98.1917 301.502 98.666C302.451 99.2194 303.084 100.287 303.084 101.433V125.109C303.084 126.176 302.57 127.164 301.74 127.757L301.661 127.797C301.147 128.113 296.127 130.682 291.661 132.935C288.973 134.279 286.759 135.385 285.099 136.136C284.151 136.571 283.36 136.927 282.846 137.164C282.253 137.441 281.74 137.638 281.186 137.638ZM300.159 99.4961C299.882 99.4961 299.605 99.5751 299.329 99.7333L281.7 110.721C281.502 110.84 280.554 111.472 280.554 112.421L280.514 135.781C280.514 136.018 280.633 136.255 280.87 136.374C280.989 136.453 281.107 136.453 281.226 136.453C281.542 136.453 281.898 136.295 282.412 136.097C282.965 135.86 283.676 135.544 284.625 135.069C286.245 134.279 288.459 133.212 291.147 131.868C295.692 129.575 300.633 127.046 301.028 126.769L301.068 126.729C301.582 126.374 301.858 125.781 301.858 125.069V101.393C301.858 100.642 301.502 99.9704 300.91 99.6542C300.672 99.5751 300.396 99.4961 300.159 99.4961ZM281.819 134.911L281.858 112.342L282.016 112.184C282.135 112.065 282.253 111.947 282.412 111.868L300.554 100.563V125.109C300.554 125.227 300.554 125.306 300.514 125.425L300.435 125.623L300.238 125.741C298.775 126.532 286.878 132.658 282.688 134.555L281.819 134.911ZM283.044 112.816L283.004 133.053C287.589 130.88 297.313 125.939 299.329 124.832V102.658L283.044 112.816Z" fill="#6600B3"/>
<path d="M300.633 99.9309L281.107 90.7214C280.751 90.5237 280.317 90.5237 279.961 90.7214L260.435 99.9309C259.645 100.326 259.645 101.393 260.475 101.749L280 111.749C280.317 111.907 280.712 111.907 281.068 111.749L300.593 101.749C301.384 101.393 301.423 100.326 300.633 99.9309Z" fill="#EFE8F9"/>
<path d="M280.514 112.461C280.238 112.461 280 112.421 279.763 112.302L260.238 102.302C259.684 102.026 259.289 101.512 259.289 100.879C259.289 100.287 259.605 99.6937 260.198 99.417L279.724 90.2075C280.238 89.9309 280.87 89.9309 281.423 90.2075L300.91 99.417C301.502 99.6937 301.819 100.287 301.819 100.879C301.819 101.512 301.423 102.026 300.83 102.302L281.344 112.263C281.068 112.381 280.791 112.461 280.514 112.461ZM280.514 91.1561C280.396 91.1561 280.317 91.1957 280.198 91.2352L260.672 100.445C260.514 100.524 260.435 100.682 260.435 100.84C260.435 100.998 260.554 101.156 260.712 101.235L280.238 111.235C280.396 111.314 280.593 111.314 280.791 111.235L300.277 101.275C300.475 101.196 300.593 101.038 300.593 100.879C300.593 100.721 300.514 100.603 300.356 100.484L280.87 91.2747C280.751 91.1957 280.633 91.1561 280.514 91.1561Z" fill="#6600B3"/>
<path d="M280.514 113.093C280.159 113.093 279.803 113.014 279.487 112.856L279.447 112.816L259.961 102.856C259.17 102.461 258.657 101.709 258.617 100.84C258.578 99.9704 259.091 99.1799 259.882 98.7846H259.921L279.408 89.5751C280.119 89.2194 280.949 89.2194 281.66 89.5751L301.186 98.7846C301.977 99.1799 302.451 99.9704 302.451 100.84C302.412 101.709 301.937 102.461 301.107 102.856L281.581 112.856H281.542C281.226 113.014 280.87 113.093 280.514 113.093ZM280.514 110.603L299.605 100.84L280.514 91.8281H280.475L261.423 100.8L280.514 110.603Z" fill="#6600B3"/>
<path d="M280.514 113.686C280.08 113.686 279.645 113.607 279.21 113.409L279.131 113.37L259.645 103.37C258.657 102.895 258.024 101.947 257.985 100.84C257.945 99.7332 258.578 98.7451 259.566 98.2313L259.605 98.1918L279.091 88.9822C279.961 88.5475 280.989 88.5475 281.858 88.9822L301.384 98.1918C302.412 98.7056 303.004 99.7333 303.004 100.8C302.965 101.868 302.332 102.856 301.344 103.33L281.819 113.33C281.423 113.607 280.989 113.686 280.514 113.686ZM280.514 89.8914C280.238 89.8914 279.921 89.9704 279.645 90.089L260.119 99.2985C259.526 99.6147 259.17 100.168 259.17 100.84C259.17 101.472 259.566 102.026 260.159 102.302L279.684 112.302C280.159 112.5 280.751 112.54 281.265 112.302L300.791 102.302C301.423 102.026 301.779 101.433 301.819 100.8C301.819 100.168 301.463 99.5751 300.87 99.2589L281.344 90.0495C281.147 89.9704 280.831 89.8914 280.514 89.8914ZM280.514 111.196H280.356L260.08 100.8L280.079 91.3538L280.238 91.0376L300.91 100.8L280.672 111.156L280.514 111.196ZM262.807 100.84L280.554 109.931L298.301 100.84L280.554 92.4605L262.807 100.84Z" fill="#6600B3"/>
<path d="M259.882 114.358C260.93 114.358 261.779 113.508 261.779 112.461C261.779 111.413 260.93 110.563 259.882 110.563C258.834 110.563 257.985 111.413 257.985 112.461C257.985 113.508 258.834 114.358 259.882 114.358Z" fill="#8C43FF"/>
<path d="M21.8972 113.488L3.47825 102.658C2.76678 102.223 1.89722 102.856 1.89722 103.804V109.259V111.67V119.773V127.125C1.89722 127.599 2.09486 127.994 2.45059 128.231C2.45059 128.231 22.4901 138.548 22.4901 137.559V114.634C22.4901 114.121 22.253 113.686 21.8972 113.488Z" fill="white"/>
<path d="M22.4111 137.876C21.8973 137.876 20.1186 137.283 12.0554 133.33C7.19371 130.959 2.41106 128.469 2.33201 128.469H2.29249C1.85771 128.192 1.58105 127.678 1.58105 127.125V119.773V111.67V109.259V103.804C1.58105 103.212 1.8577 102.658 2.33201 102.421C2.72726 102.184 3.2016 102.184 3.59686 102.421L22.0158 113.251C22.4901 113.528 22.7668 114.042 22.7668 114.634V137.559C22.7668 137.678 22.6878 137.797 22.6087 137.876C22.5692 137.876 22.5297 137.876 22.4111 137.876ZM2.60871 127.915C9.40714 131.393 20.3558 136.848 22.174 137.243V114.595C22.174 114.239 22.0159 113.884 21.7392 113.725L3.32015 102.895C3.12252 102.777 2.88538 102.777 2.64823 102.895C2.37155 103.053 2.17394 103.37 2.17394 103.765V109.219V111.631V119.733V127.085C2.21347 127.441 2.37156 127.757 2.60871 127.915Z" fill="white"/>
<path d="M22.5297 112.382L4.11066 101.551C3.39919 101.156 2.56916 101.156 1.89722 101.551C1.14624 101.986 0.671936 102.856 0.671936 103.765V109.061C0.671936 109.773 1.22528 110.326 1.93674 110.326C2.6482 110.326 3.20159 109.773 3.20159 109.061V106.057C3.20159 105.069 4.26876 104.476 5.0988 104.99L21.3044 114.516C21.3044 114.516 21.3044 114.555 21.3044 114.595V134.002C21.3044 134.911 20.3557 135.504 19.5257 135.148C15.7707 133.449 9.24903 130.247 3.20159 127.125V127.085V119.733C3.20159 119.022 2.6482 118.468 1.93674 118.468C1.22528 118.468 0.671936 119.022 0.671936 119.733V127.085C0.671936 127.955 1.10673 128.785 1.81819 129.219L1.93674 129.298C1.97627 129.338 6.79844 131.789 11.6601 134.2C14.506 135.623 16.8379 136.69 18.5375 137.48C20.83 138.508 21.8182 138.864 22.4506 138.864C22.7273 138.864 22.9645 138.785 23.1621 138.666C23.5573 138.429 23.7945 137.994 23.7945 137.559V114.634C23.755 113.686 23.2807 112.816 22.5297 112.382Z" fill="#6600B3"/>
<path d="M22.4111 139.14C21.7391 139.14 20.751 138.785 18.3795 137.717C16.6799 136.967 14.3478 135.86 11.502 134.437C6.64032 132.065 1.81819 129.575 1.77866 129.536L1.66007 129.457C0.869553 128.943 0.395264 128.034 0.395264 127.046V119.694C0.395264 118.824 1.10669 118.152 1.93673 118.152C2.76677 118.152 3.47824 118.864 3.47824 119.694V126.927C9.76283 130.168 16.087 133.251 19.6048 134.832C19.921 134.951 20.2371 134.951 20.5138 134.753C20.7905 134.595 20.9486 134.279 20.9486 133.963V114.674L4.90116 105.227C4.58495 105.069 4.26879 105.069 3.95258 105.227C3.63637 105.385 3.47824 105.702 3.47824 106.057V109.061C3.47824 109.931 2.76677 110.603 1.93673 110.603C1.10669 110.603 0.395264 109.891 0.395264 109.061V103.765C0.395264 102.737 0.948624 101.789 1.77866 101.275C2.56918 100.8 3.51776 100.84 4.30827 101.275L22.7273 112.105C23.5573 112.619 24.1107 113.528 24.1107 114.595V137.52C24.1107 138.073 23.834 138.587 23.3202 138.903C23.004 139.061 22.7273 139.14 22.4111 139.14ZM1.89721 118.785C1.38338 118.785 0.948585 119.219 0.948585 119.733V127.085C0.948585 127.876 1.34384 128.587 1.93673 128.982L2.01581 129.022C2.05534 129.022 6.87748 131.512 11.6996 133.884C14.5455 135.267 16.8775 136.374 18.5771 137.164C21.8182 138.627 22.3716 138.706 22.9249 138.35C23.2016 138.152 23.3992 137.836 23.3992 137.48V114.555C23.3992 113.725 23.004 113.014 22.332 112.619L3.91302 101.789C3.32013 101.433 2.60871 101.433 1.97629 101.789C1.30436 102.184 0.909069 102.935 0.909069 103.725V109.022C0.909069 109.536 1.34386 109.97 1.8577 109.97C2.37153 109.97 2.80632 109.536 2.80632 109.022V106.018C2.80632 105.465 3.083 104.951 3.59684 104.674C4.07115 104.397 4.66403 104.397 5.17787 104.674L21.4625 114.239L21.502 114.358C21.5415 114.397 21.5415 114.476 21.5415 114.516V133.923C21.5415 134.437 21.2648 134.951 20.8301 135.227C20.3953 135.504 19.8419 135.544 19.3281 135.346C15.7707 133.725 9.3676 130.603 3.00395 127.322L2.88536 127.243L2.84584 127.125C2.84584 127.085 2.80632 127.046 2.80632 126.967V119.615C2.84585 119.219 2.41105 118.785 1.89721 118.785Z" fill="#6600B3"/>
<path d="M41.6998 102.026L24.0712 113.014C23.7155 113.251 23.2017 113.686 23.2017 114.16L23.1622 137.52C23.1622 138.034 41.9369 128.429 42.6483 127.955C42.9645 127.718 43.1622 127.283 43.1622 126.848V103.172C43.2412 102.223 42.4112 101.591 41.6998 102.026Z" fill="#D7CBF7"/>
<path d="M23.1621 138.152C23.0435 138.152 22.9644 138.113 22.8854 138.073L22.5692 137.915V137.559L22.6087 114.2C22.6087 113.33 23.4783 112.737 23.755 112.54L41.3835 101.552C41.8578 101.275 42.4111 101.235 42.8855 101.512C43.4388 101.828 43.7945 102.461 43.7945 103.212V126.887C43.7945 127.559 43.4783 128.152 43.004 128.508C42.5692 128.785 37.6285 131.314 33.0831 133.607C25.2965 137.48 23.7155 138.152 23.1621 138.152ZM42.0159 102.54L24.3874 113.528C24.0317 113.725 23.834 114.042 23.834 114.16L23.7945 136.729C27.1147 135.346 41.502 127.994 42.4111 127.441C42.5692 127.362 42.6483 127.085 42.6483 126.848V103.172C42.6483 102.816 42.4902 102.619 42.3321 102.54C42.2135 102.461 42.1344 102.461 42.0159 102.54Z" fill="#6600B3"/>
<path d="M23.2016 138.785C23.004 138.785 22.7669 138.745 22.5692 138.627C22.174 138.389 21.9368 137.994 21.9368 137.52L21.9763 114.16C21.9763 112.935 23.0831 112.184 23.3993 111.947L41.0277 100.959C41.6997 100.524 42.4902 100.524 43.2016 100.919C43.9922 101.354 44.4665 102.223 44.4665 103.172V126.848C44.4665 127.718 44.0712 128.548 43.3993 128.982L43.3202 129.022C42.8459 129.299 37.7866 131.907 33.3993 134.121C30.7115 135.465 28.4981 136.571 26.8775 137.322C25.9289 137.757 25.1779 138.113 24.6245 138.35C24.0712 138.627 23.6364 138.785 23.2016 138.785ZM24.4664 114.279L24.4269 135.702C28.7352 133.725 40.593 127.638 41.9368 126.927C41.9368 126.887 41.9368 126.887 41.9368 126.848V103.33L24.7036 114.081C24.6246 114.16 24.5455 114.239 24.4664 114.279Z" fill="#6600B3"/>
<path d="M23.2016 139.378C22.8854 139.378 22.5692 139.299 22.2925 139.14C21.6996 138.824 21.3439 138.192 21.3439 137.52L21.3834 114.16C21.3834 112.658 22.6878 111.71 23.1226 111.433L40.7511 100.445C41.6206 99.9309 42.6483 99.8914 43.5179 100.366C44.4665 100.919 45.0989 101.986 45.0989 103.132V126.808C45.0989 127.876 44.585 128.864 43.755 129.457L43.676 129.496C43.1621 129.812 38.1424 132.382 33.6759 134.634C30.9882 135.978 28.7748 137.085 27.1147 137.836C26.1661 138.31 25.3755 138.627 24.8617 138.864C24.2688 139.18 23.755 139.378 23.2016 139.378ZM42.174 101.235C41.8973 101.235 41.6206 101.314 41.3439 101.472L23.7155 112.461C23.4388 112.619 22.5692 113.251 22.5692 114.16L22.5297 137.52C22.5297 137.757 22.6482 137.994 22.8854 138.113C23.004 138.192 23.083 138.192 23.2411 138.192C23.5573 138.192 23.9131 138.034 24.4269 137.797C24.9407 137.559 25.6917 137.243 26.6403 136.769C28.2609 135.978 30.4743 134.911 33.1621 133.567C37.7076 131.275 42.6483 128.745 43.0435 128.468L43.0831 128.429C43.5969 128.073 43.8736 127.48 43.8736 126.769V103.093C43.8736 102.342 43.5179 101.67 42.925 101.354C42.6878 101.314 42.4507 101.235 42.174 101.235ZM23.834 136.65L23.8735 114.081L24.0317 113.923C24.1502 113.804 24.2688 113.686 24.4269 113.607L42.0554 102.619C42.0554 102.619 42.0949 102.619 42.0949 102.579L42.5692 102.263V102.54C42.8064 102.619 42.9645 102.856 42.9645 103.093C42.9645 103.37 42.8064 103.567 42.5692 103.646V126.848C42.5692 126.967 42.5692 127.046 42.5297 127.164L42.4506 127.362L42.253 127.48C40.7906 128.271 28.8933 134.397 24.7036 136.295L23.834 136.65ZM25.0593 114.555L25.0198 134.793C29.6048 132.619 39.3281 127.678 41.3439 126.571V104.397L25.0593 114.555Z" fill="#6600B3"/>
<path d="M42.6482 101.67L23.1226 92.4605C22.7668 92.2629 22.332 92.2629 21.9763 92.4605L2.45059 101.67C1.66007 102.065 1.66006 103.132 2.49011 103.488L22.0158 113.488C22.332 113.646 22.7273 113.646 23.083 113.488L42.6087 103.488C43.4388 103.132 43.4388 102.065 42.6482 101.67Z" fill="#EFE8F9"/>
<path d="M22.5692 114.2C22.2925 114.2 22.0554 114.16 21.8182 114.042L2.2925 104.042C1.73914 103.765 1.34387 103.251 1.34387 102.619C1.34387 102.026 1.6601 101.433 2.25298 101.156L21.7787 91.9466C22.2925 91.67 22.9249 91.67 23.4783 91.9466L43.004 101.156C43.5574 101.433 43.9131 102.026 43.9131 102.619C43.9131 103.251 43.5179 103.765 42.925 104.042L23.4388 114.002C23.1226 114.121 22.8459 114.2 22.5692 114.2ZM22.5692 92.8953C22.4506 92.8953 22.3716 92.9348 22.253 92.9744L2.72727 102.184C2.56917 102.263 2.49013 102.421 2.49013 102.579C2.49013 102.737 2.60873 102.895 2.76684 102.974L22.2925 112.974C22.4506 113.053 22.6483 113.053 22.8459 112.974L42.3321 103.014C42.5297 102.935 42.6483 102.777 42.6483 102.619C42.6483 102.46 42.5692 102.342 42.4111 102.223L22.925 93.0139C22.7669 92.9348 22.6878 92.8953 22.5692 92.8953Z" fill="#6600B3"/>
<path d="M22.5692 114.872C22.2135 114.872 21.8577 114.793 21.5415 114.634L21.502 114.595L2.01581 104.634C1.2253 104.239 0.711456 103.488 0.67193 102.619C0.632404 101.749 1.14622 100.959 1.93673 100.563H1.9763L21.4625 91.3538C22.1739 90.998 23.004 90.998 23.7155 91.3538L43.2411 100.563C44.0316 100.959 44.506 101.749 44.506 102.619C44.4665 103.488 43.9921 104.239 43.1621 104.634L23.6364 114.634H23.5969C23.2807 114.793 22.9249 114.872 22.5692 114.872ZM22.5692 112.342L41.6601 102.579L22.5692 93.5673H22.5297L3.47825 102.54L22.5692 112.342Z" fill="#6600B3"/>
<path d="M22.5683 115.465C22.1336 115.465 21.6988 115.385 21.264 115.188L21.1849 115.148L1.69874 105.148C0.710596 104.674 0.0782039 103.725 0.0386782 102.619C-0.000847556 101.512 0.631564 100.524 1.61971 100.01L1.65922 99.9704L21.1454 90.7609C22.015 90.3261 23.0427 90.3261 23.9122 90.7609L43.4379 99.9704C44.4656 100.484 45.0585 101.512 45.0585 102.579C45.019 103.646 44.3865 104.634 43.3984 105.109L23.8727 115.109C23.4379 115.346 23.0031 115.465 22.5683 115.465ZM22.5683 91.67C22.2917 91.67 21.9754 91.7491 21.6988 91.8677L2.17308 101.077C1.58019 101.393 1.22445 101.986 1.22445 102.619C1.22445 103.251 1.61971 103.804 2.21259 104.121L21.7383 114.121C22.2126 114.358 22.8055 114.358 23.3193 114.121L42.845 104.121C43.4774 103.844 43.8332 103.251 43.8727 102.619C43.8727 101.986 43.517 101.393 42.9241 101.077L23.3984 91.8677C23.1612 91.7096 22.845 91.67 22.5683 91.67ZM22.7265 112.935H22.4498L22.3312 112.856L2.17308 102.54L22.1731 93.093L22.3312 92.7768L43.0031 102.54L22.7265 112.935ZM4.82128 102.579L22.5683 111.67L40.3154 102.579L22.5683 94.1997L4.82128 102.579Z" fill="#6600B3"/>
<path d="M1.89721 116.097C2.94502 116.097 3.79446 115.247 3.79446 114.2C3.79446 113.152 2.94502 112.302 1.89721 112.302C0.849392 112.302 0 113.152 0 114.2C0 115.247 0.849392 116.097 1.89721 116.097Z" fill="#8C43FF"/>
<path d="M220.751 251.196L202.332 240.366C201.621 239.931 200.751 240.563 200.751 241.512V246.967V249.378V257.48V264.832C200.751 265.307 200.949 265.702 201.305 265.939C201.305 265.939 221.344 276.255 221.344 275.267V252.342C221.344 251.828 221.107 251.393 220.751 251.196Z" fill="white"/>
<path d="M221.265 275.623C220.751 275.623 218.973 275.03 210.909 271.077C206.048 268.706 201.265 266.216 201.186 266.216H201.146C200.712 265.939 200.435 265.425 200.435 264.872V257.48V249.378V246.967V241.512C200.435 240.919 200.712 240.366 201.186 240.129C201.581 239.891 202.056 239.891 202.451 240.129L220.87 250.959C221.344 251.235 221.621 251.749 221.621 252.342V275.267C221.621 275.386 221.542 275.504 221.463 275.583C221.423 275.583 221.384 275.623 221.265 275.623ZM201.463 265.662C208.261 269.14 219.21 274.595 221.028 274.99V252.342C221.028 251.986 220.87 251.631 220.593 251.473L202.174 240.642C201.977 240.524 201.739 240.524 201.502 240.642C201.226 240.801 201.028 241.117 201.028 241.512V246.967V249.378V257.48V264.832C201.067 265.148 201.226 265.465 201.463 265.662Z" fill="white"/>
<path d="M221.384 250.129L202.965 239.299C202.253 238.903 201.423 238.903 200.751 239.299C200 239.733 199.526 240.603 199.526 241.512V246.808C199.526 247.52 200.079 248.073 200.791 248.073C201.502 248.073 202.056 247.52 202.056 246.808V243.804C202.056 242.816 203.123 242.223 203.953 242.737L220.158 252.263C220.158 252.263 220.158 252.302 220.158 252.342V271.749C220.158 272.658 219.21 273.251 218.38 272.895C214.625 271.196 208.103 267.994 202.056 264.872V264.832V257.48C202.056 256.769 201.502 256.216 200.791 256.216C200.079 256.216 199.526 256.769 199.526 257.48V264.832C199.526 265.702 199.961 266.532 200.672 266.967L200.791 267.046C200.83 267.085 205.652 269.536 210.514 271.947C213.36 273.37 215.692 274.437 217.392 275.227C219.684 276.255 220.672 276.611 221.305 276.611C221.581 276.611 221.818 276.532 222.016 276.413C222.411 276.176 222.648 275.741 222.648 275.306V252.382C222.609 251.393 222.135 250.563 221.384 250.129Z" fill="#6600B3"/>
<path d="M221.265 276.887C220.593 276.887 219.605 276.532 217.234 275.465C215.534 274.714 213.202 273.607 210.356 272.184C205.494 269.812 200.672 267.322 200.633 267.283L200.514 267.204C199.724 266.69 199.249 265.781 199.249 264.793V257.441C199.249 256.571 199.961 255.899 200.791 255.899C201.621 255.899 202.332 256.611 202.332 257.441V264.674C208.617 267.915 214.941 270.998 218.459 272.579C218.775 272.698 219.091 272.698 219.368 272.5C219.645 272.342 219.803 272.026 219.803 271.71V252.421L203.755 242.974C203.439 242.816 203.123 242.816 202.807 242.974C202.49 243.133 202.332 243.449 202.332 243.804V246.808C202.332 247.678 201.621 248.35 200.791 248.35C199.961 248.35 199.249 247.638 199.249 246.808V241.512C199.249 240.484 199.803 239.536 200.633 239.022C201.423 238.548 202.372 238.587 203.162 239.022L221.581 249.852C222.411 250.366 222.965 251.275 222.965 252.342V275.267C222.965 275.82 222.688 276.334 222.174 276.65C221.858 276.808 221.581 276.887 221.265 276.887ZM200.751 256.492C200.237 256.492 199.803 256.927 199.803 257.441V264.793C199.803 265.583 200.198 266.295 200.791 266.69L200.87 266.729C200.909 266.729 205.732 269.219 210.554 271.591C213.4 272.974 215.732 274.081 217.431 274.872C220.672 276.334 221.226 276.413 221.779 276.057C222.056 275.86 222.253 275.544 222.253 275.188V252.263C222.253 251.433 221.858 250.721 221.186 250.326L202.767 239.496C202.174 239.14 201.463 239.14 200.83 239.496C200.158 239.891 199.763 240.642 199.763 241.433V246.729C199.763 247.243 200.198 247.678 200.712 247.678C201.226 247.678 201.66 247.243 201.66 246.729V243.725C201.66 243.172 201.937 242.658 202.451 242.382C202.925 242.105 203.518 242.105 204.032 242.382L220.316 251.947L220.356 252.065C220.396 252.105 220.396 252.184 220.396 252.223V271.631C220.396 272.144 220.119 272.658 219.684 272.935C219.249 273.212 218.696 273.251 218.182 273.054C214.625 271.433 208.222 268.31 201.858 265.03L201.739 264.951L201.7 264.832C201.7 264.793 201.66 264.753 201.66 264.674V257.322C201.7 256.927 201.305 256.492 200.751 256.492Z" fill="#6600B3"/>
<path d="M240.554 239.733L222.925 250.721C222.57 250.959 222.056 251.393 222.056 251.868L222.016 275.227C222.016 275.741 240.791 266.136 241.502 265.662C241.819 265.425 242.016 264.99 242.016 264.555V240.88C242.095 239.931 241.265 239.338 240.554 239.733Z" fill="#D7CBF7"/>
<path d="M222.016 275.86C221.898 275.86 221.819 275.82 221.74 275.781L221.423 275.623V275.267L221.463 251.907C221.463 251.038 222.332 250.445 222.609 250.247L240.238 239.259C240.712 238.982 241.265 238.943 241.739 239.22C242.293 239.536 242.649 240.168 242.649 240.919V264.595C242.649 265.267 242.332 265.86 241.858 266.216C241.423 266.492 236.483 269.022 231.937 271.314C224.19 275.188 222.57 275.86 222.016 275.86ZM240.87 240.247L223.242 251.235C222.886 251.433 222.688 251.749 222.688 251.868L222.649 274.437C225.969 273.054 240.356 265.702 241.265 265.148C241.423 265.069 241.502 264.793 241.502 264.556V240.88C241.502 240.524 241.344 240.326 241.186 240.247C241.068 240.208 240.989 240.208 240.87 240.247Z" fill="#6600B3"/>
<path d="M222.095 276.532C221.898 276.532 221.66 276.492 221.463 276.374C221.068 276.137 220.83 275.741 220.83 275.267L220.87 251.907C220.87 250.682 221.977 249.931 222.293 249.694L239.921 238.706C240.593 238.271 241.384 238.271 242.095 238.666C242.886 239.101 243.36 239.97 243.36 240.919V264.595C243.36 265.465 242.965 266.295 242.293 266.729L242.214 266.769C241.74 267.046 236.68 269.654 232.293 271.868C229.605 273.212 227.392 274.318 225.771 275.069C224.822 275.504 224.072 275.86 223.518 276.097C222.925 276.334 222.49 276.532 222.095 276.532ZM223.36 252.026L223.321 273.449C227.629 271.472 239.487 265.386 240.83 264.674C240.83 264.635 240.83 264.635 240.83 264.595V241.117L223.597 251.868C223.479 251.868 223.4 251.947 223.36 252.026Z" fill="#6600B3"/>
<path d="M222.095 277.125C221.779 277.125 221.463 277.046 221.186 276.887C220.593 276.571 220.237 275.939 220.237 275.267L220.277 251.907C220.277 250.405 221.581 249.457 222.016 249.18L239.645 238.192C240.514 237.678 241.542 237.638 242.411 238.113C243.36 238.666 243.992 239.733 243.992 240.88V264.555C243.992 265.623 243.479 266.611 242.649 267.204L242.569 267.243C242.056 267.559 237.036 270.129 232.569 272.381C229.882 273.725 227.668 274.832 226.008 275.583C225.06 276.057 224.269 276.374 223.755 276.611C223.123 276.887 222.609 277.125 222.095 277.125ZM241.028 238.943C240.751 238.943 240.475 239.022 240.198 239.18L222.569 250.168C222.293 250.326 221.423 250.959 221.423 251.868L221.384 275.227C221.384 275.465 221.502 275.702 221.739 275.82C221.858 275.899 221.937 275.899 222.095 275.899C222.411 275.899 222.767 275.741 223.281 275.504C223.795 275.267 224.546 274.951 225.494 274.476C227.115 273.686 229.328 272.619 232.016 271.275C236.562 268.982 241.502 266.453 241.898 266.176L241.937 266.136C242.451 265.781 242.728 265.188 242.728 264.476V240.88C242.728 240.129 242.372 239.457 241.779 239.14C241.542 239.022 241.305 238.943 241.028 238.943ZM222.728 274.358L222.767 251.789L222.925 251.63C223.044 251.512 223.162 251.393 223.32 251.314L240.949 240.326L241.463 240.01V240.287C241.7 240.366 241.858 240.603 241.858 240.84C241.858 241.077 241.7 241.314 241.463 241.393V264.595C241.463 264.714 241.463 264.793 241.423 264.911L241.344 265.109L241.147 265.227C239.684 266.018 227.787 272.144 223.597 274.042L222.728 274.358ZM223.953 252.302L223.913 272.54C228.498 270.366 238.222 265.425 240.238 264.318V242.144L223.953 252.302Z" fill="#6600B3"/>
<path d="M241.502 239.378L221.977 230.168C221.621 229.97 221.186 229.97 220.83 230.168L201.305 239.378C200.514 239.773 200.514 240.84 201.344 241.196L220.87 251.196C221.186 251.354 221.581 251.354 221.937 251.196L241.463 241.196C242.293 240.84 242.293 239.773 241.502 239.378Z" fill="#EFE8F9"/>
<path d="M221.423 251.907C221.147 251.907 220.909 251.868 220.672 251.749L201.146 241.749C200.593 241.472 200.198 240.959 200.198 240.326C200.198 239.733 200.514 239.14 201.107 238.864L220.633 229.654C221.147 229.378 221.779 229.378 222.332 229.654L241.858 238.864C242.451 239.14 242.767 239.733 242.767 240.326C242.767 240.959 242.372 241.472 241.779 241.749L222.293 251.71C221.977 251.868 221.7 251.907 221.423 251.907ZM221.423 230.642C221.305 230.642 221.226 230.682 221.107 230.721L201.581 239.931C201.423 240.01 201.344 240.168 201.344 240.326C201.344 240.484 201.463 240.642 201.621 240.721L221.147 250.721C221.305 250.801 221.502 250.801 221.7 250.721L241.186 240.761C241.384 240.682 241.502 240.524 241.502 240.366C241.502 240.208 241.423 240.089 241.265 239.97L221.779 230.761C221.66 230.642 221.542 230.642 221.423 230.642Z" fill="#6600B3"/>
<path d="M221.423 252.579C221.068 252.579 220.712 252.5 220.396 252.342L220.356 252.303L200.87 242.342C200.079 241.947 199.565 241.196 199.526 240.326C199.486 239.457 200 238.666 200.791 238.271H200.83L220.316 229.061C221.028 228.706 221.858 228.706 222.569 229.061L242.095 238.271C242.886 238.666 243.36 239.457 243.36 240.326C243.32 241.196 242.846 241.947 242.016 242.342L222.49 252.342H222.451C222.135 252.5 221.779 252.579 221.423 252.579ZM221.423 250.05L240.514 240.287L221.423 231.275H221.384L202.332 240.247L221.423 250.05Z" fill="#6600B3"/>
<path d="M221.422 253.172C220.988 253.172 220.553 253.093 220.118 252.895L220.039 252.856L200.553 242.856C199.565 242.382 198.932 241.433 198.893 240.326C198.853 239.219 199.486 238.231 200.474 237.718L200.513 237.678L220 228.468C220.869 228.034 221.897 228.034 222.766 228.468L242.292 237.678C243.32 238.192 243.913 239.219 243.913 240.287C243.873 241.354 243.241 242.342 242.252 242.816L222.727 252.816C222.292 253.053 221.857 253.172 221.422 253.172ZM221.422 229.378C221.146 229.378 220.83 229.457 220.553 229.575L201.027 238.785C200.434 239.101 200.079 239.654 200.079 240.326C200.079 240.959 200.474 241.512 201.067 241.789L220.592 251.789C221.067 251.986 221.66 252.026 222.173 251.789L241.699 241.789C242.332 241.512 242.687 240.919 242.727 240.287C242.727 239.654 242.371 239.061 241.778 238.745L222.252 229.536C222.015 229.457 221.739 229.378 221.422 229.378ZM221.581 250.642H221.304L221.185 250.563L201.027 240.247L220.988 230.84L221.146 230.445L241.897 240.247L221.581 250.642ZM203.675 240.326L221.422 249.417L239.169 240.326L221.422 231.947L203.675 240.326Z" fill="#6600B3"/>
<path d="M200.751 253.804C201.799 253.804 202.648 252.955 202.648 251.907C202.648 250.859 201.799 250.01 200.751 250.01C199.703 250.01 198.854 250.859 198.854 251.907C198.854 252.955 199.703 253.804 200.751 253.804Z" fill="#8C43FF"/>
<path d="M81.7394 250.919L63.3204 240.089C62.6089 239.654 61.7394 240.287 61.7394 241.235V246.69V249.101V257.204V264.556C61.7394 265.03 61.937 265.425 62.2927 265.662C62.2927 265.662 82.3323 275.978 82.3323 274.99V252.065C82.3323 251.552 82.1347 251.117 81.7394 250.919Z" fill="white"/>
<path d="M82.2532 275.307C81.7394 275.307 79.9607 274.714 71.8974 270.761C67.0358 268.39 62.2531 265.899 62.1741 265.899H62.1346C61.6998 265.623 61.4231 265.109 61.4231 264.556V257.204V249.101V246.69V241.235C61.4231 240.643 61.6998 240.089 62.1741 239.852C62.5694 239.615 63.0437 239.615 63.4389 239.852L81.8579 250.682C82.3322 250.959 82.6089 251.473 82.6089 252.065V274.99C82.6089 275.109 82.5299 275.228 82.4508 275.307C82.4508 275.307 82.3718 275.307 82.2532 275.307ZM62.4508 265.346C69.2492 268.824 80.1979 274.279 82.016 274.674V252.026C82.016 251.67 81.8579 251.314 81.5812 251.156L63.1622 240.326C62.9646 240.208 62.7275 240.208 62.4903 240.326C62.2136 240.484 62.016 240.801 62.016 241.196V246.65V249.061V257.164V264.516C62.0555 264.872 62.2136 265.188 62.4508 265.346Z" fill="white"/>
<path d="M82.3717 249.812L63.9528 238.982C63.2413 238.587 62.4113 238.587 61.7393 238.982C60.9883 239.417 60.514 240.287 60.514 241.196V246.492C60.514 247.204 61.0674 247.757 61.7788 247.757C62.4903 247.757 63.0437 247.204 63.0437 246.492V243.488C63.0437 242.5 64.1109 241.907 64.9409 242.421L81.1465 251.947C81.1465 251.947 81.1465 251.986 81.1465 252.026V271.433C81.1465 272.342 80.1978 272.935 79.3678 272.579C75.6129 270.88 69.0911 267.678 63.0437 264.556V264.516V257.164C63.0437 256.453 62.4903 255.899 61.7788 255.899C61.0674 255.899 60.514 256.453 60.514 257.164V264.516C60.514 265.386 60.9488 266.216 61.6603 266.65L61.7788 266.73C61.8184 266.769 66.6405 269.22 71.5022 271.631C74.348 273.054 76.68 274.121 78.3797 274.911C80.6721 275.939 81.6603 276.295 82.2927 276.295C82.5694 276.295 82.8066 276.216 83.0042 276.097C83.3995 275.86 83.6366 275.425 83.6366 274.99V252.065C83.5971 251.117 83.1227 250.247 82.3717 249.812Z" fill="#6600B3"/>
<path d="M82.2532 276.571C81.5813 276.571 80.5931 276.216 78.2216 275.148C76.522 274.397 74.19 273.291 71.3441 271.868C66.4825 269.496 61.6603 267.006 61.6208 266.967L61.5022 266.888C60.7117 266.374 60.2374 265.465 60.2374 264.477V257.125C60.2374 256.255 60.9488 255.583 61.7789 255.583C62.6484 255.583 63.3204 256.295 63.3204 257.125V264.358C69.605 267.599 75.9291 270.682 79.4469 272.263C79.7631 272.382 80.0793 272.382 80.356 272.184C80.6327 272.026 80.7908 271.71 80.7908 271.394V252.105L64.7433 242.658C64.4271 242.5 64.1109 242.5 63.7947 242.658C63.4785 242.816 63.3204 243.133 63.3204 243.488V246.492C63.3204 247.362 62.6089 248.034 61.7789 248.034C60.9093 248.034 60.2374 247.322 60.2374 246.492V241.196C60.2374 240.168 60.7907 239.22 61.6208 238.706C62.4113 238.231 63.3599 238.271 64.1504 238.706L82.5694 249.536C83.3994 250.05 83.9528 250.959 83.9528 252.026V274.951C83.9528 275.504 83.6761 276.018 83.1623 276.334C82.8461 276.492 82.5694 276.571 82.2532 276.571ZM61.7394 256.216C61.2255 256.216 60.7907 256.65 60.7907 257.164V264.516C60.7907 265.307 61.186 266.018 61.7789 266.413L61.858 266.453C61.8975 266.453 66.7196 268.943 71.5418 271.314C74.3876 272.698 76.7196 273.805 78.4192 274.595C81.6603 276.058 82.2137 276.137 82.767 275.781C83.0437 275.583 83.2414 275.267 83.2414 274.911V251.986C83.2414 251.156 82.8461 250.445 82.1742 250.05L63.7552 239.22C63.1623 238.864 62.4508 238.864 61.8184 239.22C61.1465 239.615 60.7512 240.366 60.7512 241.156V246.453C60.7512 246.967 61.186 247.401 61.6998 247.401C62.2137 247.401 62.6485 246.967 62.6485 246.453V243.449C62.6485 242.895 62.9252 242.382 63.439 242.105C63.9133 241.828 64.5062 241.828 65.02 242.105L81.3046 251.67L81.3441 251.789C81.3836 251.828 81.3836 251.907 81.3836 251.947V271.354C81.3836 271.868 81.107 272.382 80.6722 272.658C80.2374 272.935 79.684 272.975 79.1702 272.777C75.6129 271.156 69.2097 268.034 62.8461 264.753L62.7275 264.674L62.688 264.556C62.688 264.516 62.6485 264.477 62.6485 264.397V257.046C62.688 256.65 62.2927 256.216 61.7394 256.216Z" fill="#6600B3"/>
<path d="M101.581 239.457L83.9528 250.445C83.5971 250.682 83.0833 251.117 83.0833 251.591L83.0438 274.951C83.0438 275.465 101.818 265.86 102.53 265.386C102.846 265.148 103.044 264.714 103.044 264.279V240.603C103.083 239.654 102.253 239.022 101.581 239.457Z" fill="#D7CBF7"/>
<path d="M83.0042 275.544C82.8856 275.544 82.8065 275.504 82.7275 275.465L82.4113 275.307V274.951L82.4508 251.591C82.4508 250.722 83.3204 250.129 83.5971 249.931L101.226 238.943C101.7 238.666 102.253 238.627 102.728 238.903C103.281 239.22 103.637 239.852 103.637 240.603V264.279C103.637 264.951 103.32 265.544 102.846 265.899C102.411 266.176 97.4706 268.706 92.9252 270.998C85.1781 274.911 83.5576 275.544 83.0042 275.544ZM101.858 239.971L84.2295 250.959C83.8738 251.156 83.6761 251.473 83.6761 251.591L83.6366 274.16C86.9568 272.777 101.344 265.425 102.253 264.872C102.411 264.793 102.49 264.516 102.49 264.279V240.603C102.49 240.247 102.332 240.05 102.174 239.931C102.056 239.891 101.977 239.891 101.858 239.971Z" fill="#6600B3"/>
<path d="M83.0832 276.216C82.8856 276.216 82.6485 276.176 82.4508 276.058C82.0556 275.82 81.8184 275.425 81.8184 274.951L81.8579 251.591C81.8579 250.366 82.9646 249.615 83.2809 249.378L100.909 238.389C101.581 237.955 102.372 237.955 103.083 238.35C103.874 238.785 104.348 239.654 104.348 240.603V264.279C104.348 265.148 103.953 265.978 103.281 266.413L103.202 266.453C102.728 266.729 97.6682 269.338 93.2809 271.552C90.5931 272.895 88.3797 274.002 86.7591 274.753C85.8105 275.188 85.0595 275.544 84.5061 275.781C83.9528 276.018 83.4785 276.216 83.0832 276.216ZM84.348 251.71L84.3085 273.133C88.6168 271.156 100.475 265.069 101.818 264.358C101.818 264.318 101.818 264.318 101.818 264.279V240.801L84.5852 251.552C84.4666 251.591 84.3876 251.67 84.348 251.71Z" fill="#6600B3"/>
<path d="M83.0833 276.809C82.7671 276.809 82.4508 276.729 82.1742 276.571C81.5813 276.255 81.2256 275.623 81.2256 274.951L81.2651 251.591C81.2651 250.089 82.5695 249.141 83.0042 248.903L100.633 237.915C101.502 237.401 102.53 237.362 103.4 237.836C104.348 238.39 104.981 239.457 104.981 240.603V264.279C104.981 265.346 104.467 266.334 103.637 266.927L103.558 266.967C103.044 267.283 98.024 269.852 93.5576 272.105C90.8698 273.449 88.6564 274.556 86.9963 275.307C86.0477 275.781 85.2572 276.097 84.7433 276.334C84.1109 276.611 83.5971 276.809 83.0833 276.809ZM102.016 238.666C101.739 238.666 101.463 238.745 101.186 238.903L83.5576 249.892C83.2809 250.05 82.4114 250.682 82.4114 251.591L82.3718 274.951C82.3718 275.188 82.4904 275.425 82.7275 275.544C82.8461 275.623 82.9252 275.623 83.0833 275.623C83.3995 275.623 83.7552 275.465 84.269 275.227C84.7829 274.99 85.5339 274.674 86.4825 274.2C88.103 273.409 90.3165 272.342 93.0042 270.998C97.5497 268.706 102.49 266.176 102.886 265.899L102.925 265.86C103.439 265.504 103.716 264.911 103.716 264.2V240.524C103.716 239.773 103.36 239.101 102.767 238.785C102.53 238.745 102.293 238.666 102.016 238.666ZM83.7157 274.081L83.7552 251.512L83.9133 251.354C84.0319 251.235 84.1505 251.117 84.3086 251.038L102.451 239.733V264.279C102.451 264.397 102.451 264.476 102.411 264.595L102.332 264.793L102.135 264.911C100.672 265.702 88.775 271.789 84.5853 273.725L83.7157 274.081ZM84.941 251.986L84.9015 272.224C89.4864 270.05 99.2098 265.109 101.226 264.002V241.828L84.941 251.986Z" fill="#6600B3"/>
<path d="M102.49 239.101L82.9646 229.891C82.6089 229.694 82.1741 229.694 81.8184 229.891L62.2927 239.101C61.5022 239.496 61.5022 240.563 62.3322 240.919L81.8579 250.919C82.1741 251.077 82.5694 251.077 82.9251 250.919L102.451 240.919C103.281 240.563 103.32 239.496 102.49 239.101Z" fill="#EFE8F9"/>
<path d="M82.4114 251.631C82.1347 251.631 81.8975 251.591 81.6604 251.473L62.1347 241.472C61.5813 241.196 61.186 240.682 61.186 240.05C61.186 239.457 61.5023 238.864 62.0951 238.587L81.6209 229.378C82.1347 229.101 82.7671 229.101 83.3204 229.378L102.846 238.587C103.4 238.864 103.755 239.457 103.755 240.05C103.755 240.682 103.36 241.196 102.767 241.472L83.2809 251.433C82.9647 251.552 82.6881 251.631 82.4114 251.631ZM82.4114 230.326C82.2928 230.326 82.2137 230.366 82.0952 230.405L62.5694 239.615C62.4113 239.694 62.3323 239.852 62.3323 240.01C62.3323 240.168 62.4508 240.326 62.609 240.405L82.1347 250.405C82.2928 250.484 82.4904 250.484 82.688 250.405L102.174 240.445C102.372 240.366 102.49 240.208 102.49 240.05C102.49 239.891 102.411 239.773 102.253 239.654L82.7671 230.445C82.6485 230.366 82.53 230.326 82.4114 230.326Z" fill="#6600B3"/>
<path d="M82.4114 252.263C82.0556 252.263 81.6999 252.184 81.3837 252.026L81.3441 251.986L61.858 242.026C61.0675 241.631 60.5536 240.88 60.5141 240.01C60.4746 239.14 60.9884 238.35 61.7789 237.955H61.8184L81.3046 228.745C82.0161 228.389 82.8461 228.389 83.5576 228.745L103.083 237.955C103.874 238.35 104.348 239.14 104.348 240.01C104.309 240.88 103.834 241.631 103.004 242.026L83.4785 252.026H83.439C83.1228 252.223 82.7671 252.263 82.4114 252.263ZM82.4114 249.773L101.502 240.01L82.4114 230.998H82.3718L63.3204 239.97L82.4114 249.773Z" fill="#6600B3"/>
<path d="M82.4106 252.856C81.9758 252.856 81.541 252.777 81.1062 252.579L81.0272 252.54L61.541 242.54C60.5528 242.065 59.9204 241.117 59.8809 240.01C59.8414 238.903 60.4738 237.915 61.4619 237.401L61.5014 237.362L80.9876 228.152C81.8572 227.718 82.8848 227.718 83.7544 228.152L103.28 237.362C104.308 237.876 104.901 238.903 104.901 239.971C104.861 241.038 104.229 242.026 103.241 242.5L83.7149 252.5C83.2801 252.777 82.8454 252.856 82.4106 252.856ZM82.4106 229.061C82.1339 229.061 81.8177 229.14 81.541 229.259L62.0153 238.469C61.4224 238.785 61.0667 239.378 61.0667 240.01C61.0667 240.643 61.4619 241.196 62.0548 241.512L81.5805 251.512C82.0548 251.749 82.6477 251.749 83.1615 251.512L102.687 241.512C103.32 241.235 103.675 240.643 103.715 240.01C103.715 239.378 103.359 238.785 102.766 238.469L83.2406 229.259C83.0034 229.14 82.7268 229.061 82.4106 229.061ZM82.5686 250.366H82.292L82.1734 250.287L62.0153 239.971L82.0153 230.524L82.1734 230.208L102.845 239.971L82.5686 250.366ZM64.6635 240.01L82.4106 249.101L100.158 240.01L82.4106 231.631L64.6635 240.01Z" fill="#6600B3"/>
<path d="M61.7394 253.528C62.7872 253.528 63.6367 252.678 63.6367 251.631C63.6367 250.583 62.7872 249.733 61.7394 249.733C60.6916 249.733 59.8422 250.583 59.8422 251.631C59.8422 252.678 60.6916 253.528 61.7394 253.528Z" fill="#8C43FF"/>
<path d="M150.514 23.0533L132.095 12.2233C131.384 11.7885 130.514 12.4209 130.514 13.3695V18.8241V21.2352V29.3379V36.6897C130.514 37.164 130.712 37.5593 131.068 37.7964C131.068 37.7964 151.107 48.1127 151.107 47.1245V24.1996C151.107 23.6858 150.909 23.251 150.514 23.0533Z" fill="white"/>
<path d="M151.028 47.4803C150.514 47.4803 148.736 46.8874 140.672 42.9348C135.811 40.5633 131.028 38.0732 130.949 38.0732H130.909C130.475 37.7965 130.198 37.2827 130.198 36.7293V29.3775V21.2747V18.8637V13.4091C130.198 12.8162 130.475 12.2629 130.949 12.0257C131.344 11.7886 131.819 11.7886 132.214 12.0257L150.633 22.8558C151.107 23.1324 151.384 23.6463 151.384 24.2392V47.1641C151.384 47.2827 151.305 47.4012 151.226 47.4803C151.226 47.4408 151.147 47.4803 151.028 47.4803ZM131.226 37.5198C138.024 40.9981 148.973 46.4526 150.791 46.8479V24.1997C150.791 23.8439 150.633 23.4882 150.356 23.3301L131.937 12.5C131.739 12.3814 131.502 12.3814 131.265 12.5C130.988 12.6581 130.791 12.9743 130.791 13.3696V18.8241V21.2352V29.338V36.6898C130.83 37.006 130.988 37.3222 131.226 37.5198Z" fill="white"/>
<path d="M151.147 21.9862L132.728 11.1562C132.016 10.7609 131.186 10.7609 130.514 11.1562C129.763 11.5909 129.289 12.4605 129.289 13.3696V18.666C129.289 19.3775 129.842 19.9308 130.554 19.9308C131.265 19.9308 131.819 19.3775 131.819 18.666V15.662C131.819 14.6739 132.886 14.081 133.716 14.5949L149.921 24.1206C149.921 24.1206 149.921 24.1601 149.921 24.1996V43.6068C149.921 44.5159 148.973 45.1088 148.143 44.753C144.388 43.0534 137.866 39.8518 131.819 36.7293V36.6898V29.338C131.819 28.6265 131.265 28.0731 130.554 28.0731C129.842 28.0731 129.289 28.6265 129.289 29.338V36.6898C129.289 37.5593 129.724 38.3894 130.435 38.8242L130.554 38.9032C130.593 38.9427 135.415 41.3933 140.277 43.8044C143.123 45.2273 145.455 46.2945 147.154 47.085C149.447 48.1127 150.435 48.4684 151.068 48.4684C151.344 48.4684 151.581 48.3894 151.779 48.2708C152.174 48.0336 152.411 47.5989 152.411 47.1641V24.2392C152.372 23.251 151.898 22.4209 151.147 21.9862Z" fill="#6600B3"/>
<path d="M151.028 48.7451C150.356 48.7451 149.368 48.3894 146.996 47.3222C145.297 46.5712 142.965 45.4645 140.119 44.0415C135.257 41.67 130.435 39.1799 130.396 39.1403L130.277 39.0613C129.487 38.5475 129.012 37.6384 129.012 36.6502V29.2984C129.012 28.4289 129.724 27.757 130.554 27.757C131.423 27.757 132.095 28.4684 132.095 29.2984V36.5316C138.38 39.7728 144.704 42.8558 148.222 44.4368C148.538 44.5554 148.854 44.5554 149.131 44.3578C149.407 44.1997 149.566 43.8835 149.566 43.5672V24.2787L133.518 14.832C133.202 14.6739 132.886 14.6739 132.569 14.832C132.253 14.9901 132.095 15.3063 132.095 15.662V18.666C132.095 19.5356 131.384 20.2075 130.554 20.2075C129.684 20.2075 129.012 19.4961 129.012 18.666V13.3696C129.012 12.3419 129.566 11.3933 130.396 10.8794C131.186 10.4051 132.135 10.4446 132.925 10.8794L151.344 21.7095C152.174 22.2233 152.728 23.1324 152.728 24.1996V47.1246C152.728 47.6779 152.451 48.1918 151.937 48.508C151.621 48.6661 151.344 48.7451 151.028 48.7451ZM130.514 28.3498C130 28.3498 129.566 28.7846 129.566 29.2984V36.6502C129.566 37.4408 129.961 38.1522 130.554 38.5475L130.633 38.587C130.672 38.587 135.494 41.0771 140.317 43.4487C143.162 44.8321 145.494 45.9388 147.194 46.7293C150.435 48.1918 150.988 48.2708 151.542 47.9151C151.819 47.7174 152.016 47.4012 152.016 47.0455V24.1206C152.016 23.2905 151.621 22.579 150.949 22.1838L132.53 11.3538C131.937 10.998 131.226 10.998 130.593 11.3538C129.921 11.749 129.526 12.5 129.526 13.2905V18.587C129.526 19.1008 129.961 19.5356 130.475 19.5356C130.988 19.5356 131.423 19.1008 131.423 18.587V15.583C131.423 15.0296 131.7 14.5158 132.214 14.2391C132.688 13.9624 133.281 13.9624 133.795 14.2391L150.079 23.8044L150.119 23.9229C150.158 23.9625 150.158 24.0415 150.158 24.081V43.4882C150.158 44.002 149.882 44.5159 149.447 44.7925C149.012 45.0692 148.459 45.1087 147.945 44.9111C144.388 43.2905 137.985 40.168 131.621 36.8874L131.502 36.8083L131.463 36.6898C131.463 36.6502 131.423 36.6107 131.423 36.5316V29.1799C131.463 28.7846 131.068 28.3498 130.514 28.3498Z" fill="#6600B3"/>
<path d="M170.356 11.6305L152.728 22.6186C152.372 22.8558 151.858 23.2905 151.858 23.7648L151.819 47.1246C151.819 47.6384 170.593 38.0336 171.305 37.5593C171.621 37.3222 171.819 36.8874 171.819 36.4526V12.7767C171.858 11.7886 171.028 11.1957 170.356 11.6305Z" fill="#D7CBF7"/>
<path d="M151.779 47.7174C151.66 47.7174 151.581 47.6779 151.502 47.6384L151.186 47.4802V47.1246L151.226 23.7648C151.226 22.8952 152.095 22.3024 152.372 22.1047L170 11.1166C170.475 10.8399 171.028 10.8004 171.502 11.0771C172.056 11.3933 172.411 12.0257 172.411 12.7767V36.4526C172.411 37.1245 172.095 37.7174 171.621 38.0732C171.186 38.3498 166.245 40.8795 161.7 43.172C153.953 47.0455 152.332 47.7174 151.779 47.7174ZM170.633 12.1047L153.004 23.0929C152.649 23.2905 152.451 23.6067 152.451 23.7253L152.411 46.2945C155.732 44.9111 170.119 37.5593 171.028 37.0059C171.186 36.9269 171.265 36.6502 171.265 36.413V12.7372C171.265 12.3814 171.107 12.1838 170.949 12.1047C170.83 12.0652 170.751 12.0652 170.633 12.1047Z" fill="#6600B3"/>
<path d="M151.858 48.3893C151.66 48.3893 151.423 48.3498 151.226 48.2312C150.83 47.9941 150.593 47.5988 150.593 47.1245L150.633 23.7648C150.633 22.5395 151.739 21.7885 152.056 21.5513L169.684 10.5632C170.356 10.1284 171.147 10.1284 171.858 10.5237C172.649 10.9584 173.123 11.828 173.123 12.7767V36.4526C173.123 37.3221 172.728 38.1521 172.056 38.5869L171.977 38.6265C171.502 38.9032 166.443 41.5118 162.056 43.7253C159.368 45.0691 157.155 46.1759 155.534 46.9269C154.585 47.3617 153.834 47.7174 153.281 47.9546C152.728 48.1917 152.253 48.3893 151.858 48.3893ZM153.123 23.8834L153.083 45.3063C157.392 43.33 169.249 37.2431 170.593 36.5316C170.593 36.4921 170.593 36.4921 170.593 36.4526V12.9743L153.36 23.7253C153.241 23.7253 153.162 23.8043 153.123 23.8834Z" fill="#6600B3"/>
<path d="M151.858 48.9822C151.542 48.9822 151.226 48.9032 150.949 48.7451C150.356 48.4289 150 47.7965 150 47.1245L150.04 23.7648C150.04 22.2628 151.344 21.3142 151.779 21.0375L169.408 10.0494C170.277 9.53554 171.305 9.49603 172.174 9.97034C173.123 10.5237 173.755 11.5909 173.755 12.7371V36.413C173.755 37.4802 173.242 38.4684 172.411 39.0613L172.332 39.1008C171.819 39.417 166.799 41.9862 162.332 44.2391C159.645 45.583 157.431 46.6897 155.771 47.4407C154.823 47.915 154.032 48.2312 153.518 48.4684C152.886 48.745 152.372 48.9822 151.858 48.9822ZM170.791 10.8004C170.514 10.8004 170.238 10.8794 169.961 11.0375L152.332 22.0257C152.135 22.1443 151.186 22.7766 151.186 23.7253L151.147 47.085C151.147 47.3221 151.265 47.5593 151.502 47.6779C151.621 47.7569 151.74 47.7569 151.858 47.7569C152.174 47.7569 152.53 47.5988 153.044 47.4012C153.597 47.164 154.309 46.8478 155.257 46.3735C156.878 45.583 159.091 44.5158 161.779 43.172C166.324 40.8795 171.265 38.3498 171.66 38.0731L171.7 38.0336C172.214 37.6779 172.491 37.085 172.491 36.3735V12.6976C172.491 11.9466 172.135 11.2747 171.542 10.9585C171.305 10.8794 171.068 10.8004 170.791 10.8004ZM152.49 46.2154L152.53 23.6462L152.688 23.4881C152.807 23.3695 152.925 23.2509 153.083 23.1719L170.712 12.1838L171.226 11.8675V12.1443C171.463 12.2233 171.621 12.4604 171.621 12.6976C171.621 12.9347 171.463 13.1719 171.226 13.2509V36.4526C171.226 36.5712 171.226 36.6502 171.186 36.7688L171.107 36.9664L170.909 37.085C169.447 37.8755 157.55 44.002 153.36 45.8992L152.49 46.2154ZM153.716 24.16L153.676 44.3972C158.261 42.2233 167.985 37.2826 170 36.1759V14.0019L153.716 24.16Z" fill="#6600B3"/>
<path d="M171.265 11.2352L151.739 2.02566C151.384 1.82803 150.949 1.82803 150.593 2.02566L131.068 11.2352C130.277 11.6304 130.277 12.6976 131.107 13.0534L150.633 23.0534C150.949 23.2115 151.344 23.2115 151.7 23.0534L171.226 13.0534C172.056 12.6976 172.095 11.67 171.265 11.2352Z" fill="#EFE8F9"/>
<path d="M151.186 23.7648C150.91 23.7648 150.672 23.7253 150.435 23.6067L130.909 13.6067C130.356 13.33 129.961 12.8162 129.961 12.1838C129.961 11.5909 130.277 10.998 130.87 10.7213L150.396 1.51183C150.91 1.23515 151.542 1.23515 152.095 1.51183L171.621 10.7213C172.214 10.998 172.53 11.5909 172.53 12.1838C172.53 12.8162 172.135 13.33 171.542 13.6067L152.056 23.5672C151.74 23.7253 151.463 23.7648 151.186 23.7648ZM151.186 2.49997C151.068 2.49997 150.989 2.53948 150.87 2.57901L131.344 11.7885C131.186 11.8676 131.107 12.0257 131.107 12.1838C131.107 12.3419 131.226 12.5 131.384 12.579L150.909 22.579C151.068 22.6581 151.265 22.6581 151.463 22.579L170.949 12.6186C171.147 12.5395 171.265 12.3814 171.265 12.2233C171.265 12.0652 171.186 11.9466 171.028 11.828L151.542 2.61852C151.423 2.49995 151.305 2.49997 151.186 2.49997Z" fill="#6600B3"/>
<path d="M151.186 24.4367C150.83 24.4367 150.475 24.3577 150.158 24.1996L150.119 24.16L130.633 14.1996C129.842 13.8043 129.328 13.0533 129.289 12.1838C129.249 11.3142 129.763 10.5237 130.554 10.1284H130.593L150.079 0.918929C150.791 0.563197 151.621 0.563197 152.332 0.918929L171.858 10.1284C172.649 10.5237 173.123 11.3142 173.123 12.1838C173.083 13.0533 172.609 13.8043 171.779 14.1996L152.253 24.1996H152.214C151.898 24.3577 151.542 24.4367 151.186 24.4367ZM151.186 21.9071L170.277 12.1442L151.186 3.13236H151.147L132.095 12.1047L151.186 21.9071Z" fill="#6600B3"/>
<path d="M151.185 25.0297C150.751 25.0297 150.316 24.9506 149.881 24.753L149.802 24.7134L130.316 14.7135C129.328 14.2392 128.695 13.2905 128.656 12.1838C128.616 11.0771 129.249 10.089 130.237 9.57512L130.276 9.53555L149.762 0.326087C150.632 -0.108696 151.66 -0.108696 152.529 0.326087L172.055 9.53555C173.083 10.0494 173.675 11.0771 173.675 12.1443C173.636 13.2115 173.004 14.1996 172.015 14.6739L152.49 24.6739C152.055 24.9506 151.62 25.0297 151.185 25.0297ZM151.185 1.23515C150.909 1.23515 150.592 1.3142 150.316 1.43278L130.79 10.6423C130.197 10.9585 129.841 11.5119 129.841 12.1838C129.841 12.8162 130.237 13.3696 130.83 13.6462L150.355 23.6463C150.83 23.8439 151.422 23.8834 151.936 23.6463L171.462 13.6462C172.094 13.3696 172.45 12.7767 172.49 12.1443C172.49 11.5119 172.134 10.919 171.541 10.6028L152.015 1.39326C151.778 1.31421 151.502 1.23515 151.185 1.23515ZM151.343 22.5H151.067L150.948 22.421L130.79 12.1047L150.751 2.69763L150.909 2.34189L171.66 12.1443L151.343 22.5ZM133.438 12.1838L151.185 21.2747L168.932 12.1838L151.185 3.80432L133.438 12.1838Z" fill="#6600B3"/>
<path d="M130.514 25.6621C131.562 25.6621 132.411 24.8126 132.411 23.7648C132.411 22.717 131.562 21.8676 130.514 21.8676C129.466 21.8676 128.617 22.717 128.617 23.7648C128.617 24.8126 129.466 25.6621 130.514 25.6621Z" fill="#8C43FF"/>
<path d="M95.692 227.085C94.5458 227.085 93.4391 226.532 92.7671 225.544C91.6604 223.923 92.0557 221.71 93.6762 220.603L150.158 181.71L205.89 217.797C207.55 218.864 208.024 221.077 206.957 222.698C205.89 224.358 203.676 224.832 202.056 223.765L150.277 190.287L97.6683 226.492C97.0754 226.848 96.364 227.085 95.692 227.085Z" fill="#9C69FF"/>
<path d="M107.234 149.694C106.957 149.694 106.68 149.654 106.443 149.615L54.4667 137.559C52.5694 137.125 51.3441 135.188 51.8184 133.291C52.2928 131.393 54.19 130.168 56.0872 130.642L108.064 142.698C109.961 143.132 111.186 145.069 110.712 146.967C110.317 148.587 108.854 149.694 107.234 149.694Z" fill="#9C69FF"/>
<path d="M150.87 96.255C148.893 96.255 147.312 94.674 147.312 92.6977L147.233 59.4961C147.233 57.5198 148.814 55.9388 150.791 55.9388C152.767 55.9388 154.348 57.5198 154.348 59.4961L154.427 92.6977C154.427 94.6345 152.806 96.2155 150.87 96.255Z" fill="#9C69FF"/>
<path d="M194.585 150.208C193.004 150.208 191.542 149.14 191.147 147.52C190.672 145.623 191.819 143.686 193.716 143.172L247.313 129.338C249.21 128.864 251.147 130.01 251.661 131.907C252.135 133.805 250.989 135.741 249.091 136.255L195.494 150.089C195.178 150.168 194.862 150.208 194.585 150.208Z" fill="#9C69FF"/>
</svg>
