<svg width="20" height="16" viewBox="0 0 20 16" fill="none" xmlns="http://www.w3.org/2000/svg">
<path fill-rule="evenodd" clip-rule="evenodd" d="M2 0H18C19.1 0 20 0.9 20 2V14C20 15.1 19.1 16 18 16H2C0.9 16 0 15.1 0 14L0.00999999 2C0.00999999 0.9 0.9 0 2 0ZM10.53 8.67L17.6 4.25C17.85 4.09 18 3.82 18 3.53C18 2.86 17.27 2.46 16.7 2.81L10 7L3.3 2.81C2.73 2.46 2 2.86 2 3.53C2 3.82 2.15 4.09 2.4 4.25L9.47 8.67C9.79 8.87 10.21 8.87 10.53 8.67ZM9.89716 10.9048C9.96864 10.8667 10.0542 10.8656 10.1266 10.9018L17.6646 14.6708C18.0351 14.8561 18.4856 14.7059 18.6708 14.3354C18.8561 13.9649 18.7059 13.5144 18.3354 13.3292L10.7974 9.56019C10.2902 9.30659 9.69162 9.31447 9.19128 9.58132L2.14706 13.3382C1.78158 13.5332 1.64331 13.9875 1.83824 14.3529C2.03316 14.7184 2.48746 14.8567 2.85294 14.6618L9.89716 10.9048Z" fill="#A142FF"/>
</svg>
