<svg width="357" height="292" viewBox="0 0 357 292" fill="none" xmlns="http://www.w3.org/2000/svg">
<path d="M283.682 181.035C283.558 181.035 283.435 181.035 283.312 181.011L174.952 162.54C173.745 162.343 172.933 161.186 173.13 159.979C173.327 158.772 174.484 157.959 175.691 158.156L284.051 176.627C285.258 176.824 286.07 177.981 285.873 179.188C285.676 180.272 284.741 181.035 283.682 181.035Z" fill="#9C69FF"/>
<path d="M225.561 250.484C224.946 250.484 224.355 250.238 223.911 249.745C223.099 248.834 223.172 247.43 224.084 246.618L282.204 194.9C283.115 194.088 284.519 194.161 285.332 195.073C286.144 195.984 286.07 197.388 285.159 198.2L227.039 249.918C226.596 250.287 226.078 250.484 225.561 250.484Z" fill="#9C69FF"/>
<path d="M219.503 266.122L27.0161 211.056L65.213 78.7088C65.5578 77.5267 66.7892 76.8617 67.9467 77.1819C69.1288 77.5267 69.7937 78.758 69.4735 79.9155L32.508 208.027L212.263 259.448L174.139 157.738L174.312 157.073L203.446 44.0582L298.409 181.011L327.789 57.5786L195.048 28.6908L92.303 82.6245L138.553 167.539L50.9785 188.497C49.7963 188.793 48.5896 188.054 48.3187 186.847C48.0232 185.665 48.762 184.458 49.9687 184.187L131.904 164.559L86.2693 80.8021L194.408 24.0362L333.133 54.2046L300.404 191.699L205.342 54.5494L178.794 157.491L219.503 266.122Z" fill="#9C69FF"/>
<path d="M152.911 202.707C174.673 202.707 192.314 185.066 192.314 163.303C192.314 141.541 174.673 123.9 152.911 123.9C131.149 123.9 113.507 141.541 113.507 163.303C113.507 185.066 131.149 202.707 152.911 202.707Z" fill="#EFE8F9"/>
<path d="M152.566 181.528C151.581 181.528 150.793 180.74 150.793 179.755V147.345C150.793 146.36 151.581 145.572 152.566 145.572C153.551 145.572 154.339 146.36 154.339 147.345V179.755C154.339 180.715 153.551 181.528 152.566 181.528Z" fill="#9C69FF"/>
<path d="M154.733 161.752C154.709 161.752 153.305 161.53 152.689 161.53C149.266 161.481 146.385 159.092 146.385 156.285C146.385 153.354 149.266 150.99 152.788 150.99C156.309 150.99 159.191 153.379 159.191 156.285C159.191 156.95 159.043 157.615 158.747 158.23C158.427 158.895 158.575 159.659 159.141 160.151C159.536 160.496 160.077 160.644 160.594 160.545C161.112 160.447 161.555 160.102 161.777 159.634C162.294 158.575 162.54 157.442 162.54 156.285C162.54 151.556 158.181 147.69 152.812 147.69C147.444 147.69 143.085 151.532 143.085 156.285C143.085 160.348 146.36 163.895 150.867 164.707L150.99 164.732H151.088C151.113 164.732 151.113 164.732 151.138 164.732C152.985 164.88 153.329 164.929 153.379 164.929L153.551 164.954C156.235 165.101 159.215 167.342 159.215 170.15C159.215 173.081 156.359 175.445 152.812 175.445C149.291 175.445 146.409 173.056 146.409 170.15C146.409 169.657 146.483 169.165 146.655 168.697C146.828 168.204 146.754 167.638 146.434 167.219C146.114 166.776 145.621 166.53 145.079 166.53C144.365 166.53 143.725 166.973 143.503 167.638C143.232 168.451 143.085 169.288 143.085 170.15C143.085 174.878 147.444 178.745 152.812 178.745C158.181 178.745 162.54 174.903 162.54 170.15C162.491 165.988 159.314 162.515 154.733 161.752ZM149.857 164.042C149.857 164.067 149.882 164.067 149.882 164.067L149.857 164.042ZM150.374 164.535C150.547 164.633 150.744 164.707 150.99 164.732C150.768 164.707 150.571 164.658 150.374 164.535Z" fill="#6600B3"/>
<path d="M152.788 204.874C129.786 204.874 111.069 186.158 111.069 163.156C111.069 140.129 129.786 121.412 152.788 121.412C175.79 121.412 194.506 140.129 194.506 163.131C194.531 186.158 175.814 204.874 152.788 204.874ZM152.788 125.845C132.224 125.845 115.502 142.567 115.502 163.131C115.502 183.695 132.224 200.417 152.788 200.417C173.351 200.417 190.073 183.695 190.073 163.131C190.098 142.567 173.351 125.845 152.788 125.845Z" fill="#6600B3"/>
<path d="M80.2357 111.586C98.611 111.586 113.507 96.6901 113.507 78.3148C113.507 59.9394 98.611 45.0433 80.2357 45.0433C61.8604 45.0433 46.9642 59.9394 46.9642 78.3148C46.9642 96.6901 61.8604 111.586 80.2357 111.586Z" fill="#EFE8F9"/>
<path d="M79.9648 93.6821C79.1275 93.6821 78.4625 93.0172 78.4625 92.1799V64.8436C78.4625 64.0063 79.1275 63.3413 79.9648 63.3413C80.8021 63.3413 81.4671 64.0063 81.4671 64.8436V92.2045C81.4671 93.0172 80.7775 93.6821 79.9648 93.6821Z" fill="#9C69FF"/>
<path d="M81.7873 77.0095C81.7873 77.0095 80.5805 76.8371 80.0633 76.8125C77.1819 76.7879 74.7438 74.7438 74.7438 72.3796C74.7438 69.9169 77.1573 67.8974 80.1372 67.8974C83.1171 67.8974 85.5306 69.8922 85.5306 72.3796C85.5306 72.946 85.4075 73.4878 85.1612 74.0296C84.8903 74.596 85.0134 75.2363 85.4813 75.655C85.8015 75.9505 86.2694 76.0737 86.7127 75.9998C87.156 75.9259 87.5254 75.6304 87.6978 75.2363C88.1411 74.3498 88.3627 73.3893 88.3627 72.4042C88.3627 68.4146 84.6686 65.1638 80.1618 65.1638C75.6304 65.1638 71.961 68.4146 71.961 72.4042C71.961 75.8274 74.7192 78.8319 78.5118 79.4969L78.6103 79.5215H78.6842C78.7088 79.5215 78.7088 79.5215 78.7335 79.5215C80.3096 79.6446 80.5805 79.6939 80.6298 79.6939L80.7775 79.7185C83.0432 79.8416 85.5552 81.7379 85.5552 84.1022C85.5552 86.5649 83.1417 88.5843 80.1618 88.5843C77.1819 88.5843 74.7685 86.5649 74.7685 84.1022C74.7685 83.6835 74.8424 83.2648 74.9655 82.8708C75.1133 82.4521 75.0394 81.9842 74.7931 81.6148C74.5222 81.2454 74.1035 81.0238 73.6356 81.0238C73.0446 81.0238 72.5028 81.3932 72.3057 81.9596C72.0595 82.6492 71.961 83.3633 71.961 84.0775C71.961 88.0672 75.6551 91.318 80.1618 91.318C84.6933 91.318 88.3627 88.0672 88.3627 84.0775C88.3381 80.5805 85.6537 77.6498 81.7873 77.0095ZM77.6745 78.9304L77.6991 78.9551C77.6745 78.9551 77.6745 78.9551 77.6745 78.9304ZM78.0932 79.3491C78.2409 79.423 78.4133 79.4969 78.6103 79.5215C78.4379 79.4969 78.2655 79.4476 78.0932 79.3491Z" fill="#6600B3"/>
<path d="M80.1372 113.753C60.5339 113.753 44.5754 97.7949 44.5754 78.1916C44.5754 58.5883 60.5339 42.6052 80.1372 42.6052C99.7405 42.6052 115.699 58.5637 115.699 78.167C115.699 97.7703 99.7651 113.753 80.1372 113.753ZM80.1372 47.0381C62.972 47.0381 49.0083 61.0018 49.0083 78.1916C49.0083 95.3815 62.972 109.32 80.1372 109.32C97.3024 109.32 111.266 95.3568 111.266 78.1916C111.266 61.0264 97.327 47.0381 80.1372 47.0381Z" fill="#6600B3"/>
<path d="M29.9714 227.802C45.2184 227.802 57.5786 215.442 57.5786 200.195C57.5786 184.948 45.2184 172.588 29.9714 172.588C14.7244 172.588 2.36424 184.948 2.36424 200.195C2.36424 215.442 14.7244 227.802 29.9714 227.802Z" fill="#EFE8F9"/>
<path d="M29.7497 212.977C29.0602 212.977 28.4937 212.41 28.4937 211.721V189.014C28.4937 188.325 29.0602 187.758 29.7497 187.758C30.4393 187.758 31.0057 188.325 31.0057 189.014V211.721C31.0057 212.41 30.4393 212.977 29.7497 212.977Z" fill="#9C69FF"/>
<path d="M31.2766 199.112C31.2766 199.112 30.2669 198.964 29.8482 198.964C27.4594 198.939 25.44 197.265 25.44 195.294C25.44 193.25 27.4594 191.576 29.9221 191.576C32.3849 191.576 34.4043 193.25 34.4043 195.294C34.4043 195.762 34.3058 196.23 34.0841 196.649C33.8625 197.117 33.961 197.659 34.355 198.003C34.6259 198.25 34.9953 198.348 35.3648 198.274C35.7342 198.2 36.0297 197.979 36.1775 197.634C36.5469 196.895 36.7193 196.107 36.7193 195.27C36.7193 191.945 33.6655 189.261 29.8975 189.261C26.1295 189.261 23.0757 191.97 23.0757 195.27C23.0757 198.126 25.3661 200.589 28.5184 201.156L28.6169 201.18H28.6908H28.7154C30.0206 201.279 30.2669 201.303 30.2915 201.328L30.4147 201.353C32.2863 201.451 34.3797 203.027 34.3797 204.997C34.3797 207.042 32.3602 208.716 29.8975 208.716C27.4348 208.716 25.4153 207.042 25.4153 204.997C25.4153 204.653 25.4646 204.308 25.5877 203.988C25.7109 203.643 25.6616 203.249 25.44 202.953C25.2183 202.658 24.8735 202.461 24.4795 202.461C23.987 202.461 23.5437 202.781 23.3713 203.249C23.1743 203.815 23.0757 204.406 23.0757 204.997C23.0757 208.322 26.1295 211.007 29.8975 211.007C33.6655 211.007 36.7193 208.298 36.7193 204.997C36.7193 202.067 34.4782 199.653 31.2766 199.112ZM27.8534 200.712C27.8534 200.712 27.8534 200.737 27.8781 200.737C27.8534 200.737 27.8534 200.712 27.8534 200.712ZM28.2228 201.057C28.346 201.131 28.4937 201.18 28.6661 201.18C28.4937 201.18 28.346 201.156 28.2228 201.057Z" fill="#6600B3"/>
<path d="M29.8975 229.994C13.4219 229.994 0 216.572 0 200.097C0 183.596 13.4219 170.174 29.8975 170.174C46.3978 170.174 59.795 183.596 59.795 200.072C59.8197 216.572 46.3978 229.994 29.8975 229.994ZM29.8975 174.607C15.86 174.607 4.43291 186.034 4.43291 200.097C4.43291 214.134 15.86 225.561 29.8975 225.561C43.9351 225.561 55.3621 214.134 55.3621 200.097C55.3868 186.034 43.9597 174.607 29.8975 174.607Z" fill="#6600B3"/>
<path d="M319.12 105.159C338.706 105.159 354.584 89.281 354.584 69.6952C354.584 50.1094 338.706 34.2319 319.12 34.2319C299.534 34.2319 283.657 50.1094 283.657 69.6952C283.657 89.281 299.534 105.159 319.12 105.159Z" fill="#EFE8F9"/>
<path d="M319.342 86.097H318.332C317.741 86.097 317.249 85.6044 317.249 85.0134V54.8203C317.249 54.2293 317.741 53.7367 318.332 53.7367H319.342C319.933 53.7367 320.426 54.2293 320.426 54.8203V85.0134C320.426 85.6044 319.933 86.097 319.342 86.097Z" fill="#9C69FF"/>
<path d="M320.77 68.3161C320.77 68.3161 319.465 68.1191 318.923 68.1191C315.845 68.0698 313.259 65.9272 313.259 63.3906C313.259 60.7555 315.845 58.6129 319.022 58.6129C322.199 58.6129 324.785 60.7555 324.785 63.3906C324.785 63.9817 324.637 64.5727 324.39 65.1392C324.095 65.7302 324.243 66.4198 324.735 66.8631C325.08 67.1832 325.573 67.3064 326.041 67.2325C326.508 67.134 326.902 66.8384 327.099 66.4198C327.567 65.4593 327.789 64.4496 327.789 63.3906C327.789 59.1301 323.873 55.6577 319.046 55.6577C314.219 55.6577 310.304 59.1301 310.304 63.3906C310.304 67.0601 313.259 70.237 317.298 70.9758L317.421 71.0004H317.495C317.519 71.0004 317.52 71.0004 317.544 71.0004C319.219 71.1482 319.514 71.1728 319.564 71.1728L319.711 71.1975C322.125 71.3206 324.809 73.3647 324.809 75.8767C324.809 78.5118 322.223 80.6543 319.046 80.6543C315.869 80.6543 313.284 78.5118 313.284 75.8767C313.284 75.4334 313.357 74.9901 313.505 74.5714C313.653 74.1281 313.579 73.6356 313.308 73.2415C313.037 72.8475 312.569 72.6258 312.077 72.6258C311.437 72.6258 310.87 73.0199 310.648 73.6356C310.402 74.3498 310.279 75.1132 310.279 75.9013C310.279 80.1618 314.195 83.6342 319.022 83.6342C323.849 83.6342 327.764 80.1618 327.764 75.9013C327.764 72.1087 324.883 69.0056 320.77 68.3161ZM316.387 70.3601L316.411 70.3848C316.411 70.3848 316.387 70.3848 316.387 70.3601ZM316.855 70.8034C317.002 70.8773 317.199 70.9512 317.421 70.9758C317.224 70.9758 317.027 70.9266 316.855 70.8034Z" fill="#6600B3"/>
<path d="M319.022 107.35C298.187 107.35 281.244 90.4067 281.244 69.5721C281.244 48.7374 298.187 31.7692 319.022 31.7692C339.856 31.7692 356.8 48.7128 356.8 69.5474C356.8 90.3821 339.856 107.35 319.022 107.35ZM319.022 36.2021C300.625 36.2021 285.676 51.1755 285.676 69.5474C285.676 87.944 300.65 102.893 319.022 102.893C337.394 102.893 352.367 87.9194 352.367 69.5474C352.392 51.1755 337.418 36.2021 319.022 36.2021Z" fill="#6600B3"/>
<path d="M297.916 215.267C313.041 215.267 325.302 203.006 325.302 187.882C325.302 172.757 313.041 160.496 297.916 160.496C282.792 160.496 270.531 172.757 270.531 187.882C270.531 203.006 282.792 215.267 297.916 215.267Z" fill="#EFE8F9"/>
<path d="M297.695 200.54C297.005 200.54 296.463 199.998 296.463 199.309V176.799C296.463 176.11 297.005 175.568 297.695 175.568C298.384 175.568 298.926 176.11 298.926 176.799V199.309C298.926 199.998 298.384 200.54 297.695 200.54Z" fill="#9C69FF"/>
<path d="M299.197 186.823C299.197 186.823 298.187 186.675 297.768 186.675C295.404 186.65 293.385 184.976 293.385 183.03C293.385 181.011 295.38 179.36 297.818 179.36C300.28 179.36 302.251 181.011 302.251 183.03C302.251 183.498 302.152 183.941 301.93 184.384C301.709 184.852 301.807 185.37 302.201 185.714C302.472 185.961 302.842 186.059 303.211 185.985C303.556 185.911 303.876 185.69 304.024 185.37C304.393 184.631 304.566 183.843 304.566 183.03C304.566 179.73 301.536 177.07 297.818 177.07C294.099 177.07 291.07 179.755 291.07 183.03C291.07 185.862 293.336 188.3 296.463 188.867L296.562 188.891H296.636H296.66C297.941 188.99 298.187 189.014 298.212 189.014L298.335 189.039C300.182 189.138 302.275 190.714 302.275 192.659C302.275 194.679 300.28 196.353 297.842 196.353C295.404 196.353 293.409 194.703 293.409 192.659C293.409 192.314 293.459 191.97 293.582 191.649C293.705 191.305 293.656 190.911 293.434 190.615C293.212 190.32 292.868 190.123 292.498 190.123C292.006 190.123 291.562 190.443 291.415 190.886C291.218 191.452 291.119 192.044 291.119 192.635C291.119 195.935 294.148 198.594 297.867 198.594C301.586 198.594 304.615 195.91 304.615 192.635C304.59 189.753 302.374 187.34 299.197 186.823ZM295.823 188.399C295.823 188.399 295.823 188.423 295.847 188.423C295.823 188.399 295.823 188.399 295.823 188.399ZM296.168 188.743C296.291 188.817 296.414 188.867 296.586 188.867C296.439 188.867 296.291 188.817 296.168 188.743Z" fill="#6600B3"/>
<path d="M297.842 217.434C281.49 217.434 268.166 204.136 268.166 187.758C268.166 171.381 281.49 158.107 297.842 158.107C314.195 158.107 327.518 171.406 327.518 187.783C327.518 204.16 314.219 217.434 297.842 217.434ZM297.842 162.54C283.928 162.54 272.599 173.869 272.599 187.783C272.599 201.697 283.928 213.026 297.842 213.026C311.757 213.026 323.085 201.697 323.085 187.783C323.085 173.869 311.757 162.54 297.842 162.54Z" fill="#6600B3"/>
<path d="M205.096 289.124C221.567 289.124 234.92 275.772 234.92 259.301C234.92 242.83 221.567 229.477 205.096 229.477C188.625 229.477 175.272 242.83 175.272 259.301C175.272 275.772 188.625 289.124 205.096 289.124Z" fill="#EFE8F9"/>
<path d="M204.825 273.116C204.086 273.116 203.471 272.525 203.471 271.762V247.233C203.471 246.494 204.062 245.879 204.825 245.879C205.564 245.879 206.18 246.47 206.18 247.233V271.762C206.18 272.501 205.589 273.116 204.825 273.116Z" fill="#9C69FF"/>
<path d="M206.475 258.143C206.475 258.143 205.391 257.995 204.924 257.971C202.338 257.946 200.146 256.124 200.146 254.006C200.146 251.789 202.313 249.991 204.997 249.991C207.657 249.991 209.849 251.789 209.849 254.006C209.849 254.523 209.726 255.015 209.504 255.483C209.258 255.976 209.381 256.567 209.8 256.936C210.095 257.207 210.514 257.306 210.883 257.232C211.277 257.158 211.598 256.912 211.77 256.542C212.164 255.73 212.361 254.892 212.361 254.006C212.361 250.41 209.061 247.504 204.997 247.504C200.934 247.504 197.634 250.41 197.634 254.006C197.634 257.084 200.121 259.769 203.52 260.384L203.618 260.409H203.692C203.717 260.409 203.717 260.409 203.741 260.409C205.145 260.532 205.416 260.557 205.441 260.557L205.564 260.581C207.583 260.68 209.849 262.404 209.849 264.522C209.849 266.738 207.682 268.536 204.997 268.536C202.338 268.536 200.146 266.738 200.146 264.522C200.146 264.152 200.195 263.783 200.318 263.413C200.441 263.044 200.392 262.625 200.146 262.305C199.9 261.985 199.53 261.788 199.112 261.788C198.57 261.788 198.102 262.133 197.929 262.625C197.708 263.241 197.609 263.881 197.609 264.522C197.609 268.117 200.909 271.023 204.973 271.023C209.036 271.023 212.336 268.117 212.336 264.522C212.361 261.345 209.948 258.734 206.475 258.143ZM202.781 259.867L202.806 259.892L202.781 259.867ZM203.175 260.236C203.298 260.31 203.446 260.36 203.643 260.384C203.471 260.384 203.323 260.335 203.175 260.236Z" fill="#6600B3"/>
<path d="M204.997 291.316C187.29 291.316 172.859 276.909 172.859 259.177C172.859 241.47 187.266 227.039 204.997 227.039C222.729 227.039 237.136 241.446 237.136 259.177C237.136 276.909 222.729 291.316 204.997 291.316ZM204.997 231.496C189.729 231.496 177.292 243.909 177.292 259.202C177.292 274.471 189.704 286.908 204.997 286.908C220.266 286.908 232.703 274.496 232.703 259.202C232.703 243.909 220.266 231.496 204.997 231.496Z" fill="#6600B3"/>
<path d="M203.643 81.2947C225.405 81.2947 243.047 63.653 243.047 41.891C243.047 20.129 225.405 2.48737 203.643 2.48737C181.881 2.48737 164.239 20.129 164.239 41.891C164.239 63.653 181.881 81.2947 203.643 81.2947Z" fill="#EFE8F9"/>
<path d="M203.298 60.1152C202.313 60.1152 201.525 59.3271 201.525 58.342V25.9325C201.525 24.9474 202.313 24.1594 203.298 24.1594C204.283 24.1594 205.071 24.9474 205.071 25.9325V58.342C205.071 59.3025 204.283 60.1152 203.298 60.1152Z" fill="#9C69FF"/>
<path d="M205.465 40.3395C205.441 40.3395 204.037 40.1178 203.421 40.1178C199.998 40.0686 197.117 37.6797 197.117 34.8722C197.117 31.9416 199.998 29.5773 203.52 29.5773C207.042 29.5773 209.923 31.9662 209.923 34.8722C209.923 35.5371 209.775 36.2021 209.48 36.8178C209.16 37.4827 209.307 38.2461 209.874 38.7387C210.268 39.0835 210.81 39.2312 211.327 39.1327C211.844 39.0342 212.287 38.6894 212.509 38.2215C213.026 37.1625 213.272 36.0297 213.272 34.8722C213.272 30.1438 208.913 26.2773 203.544 26.2773C198.176 26.2773 193.817 30.1191 193.817 34.8722C193.817 38.9357 197.092 42.482 201.599 43.2947L201.722 43.3194H201.821C201.845 43.3194 201.845 43.3194 201.87 43.3194C203.717 43.4671 204.062 43.5164 204.111 43.5164L204.283 43.541C206.968 43.6888 209.948 45.9299 209.948 48.7374C209.948 51.668 207.091 54.0322 203.544 54.0322C200.023 54.0322 197.141 51.6434 197.141 48.7374C197.141 48.2448 197.215 47.7523 197.388 47.2844C197.56 46.7918 197.486 46.2254 197.166 45.8067C196.846 45.3634 196.353 45.1172 195.812 45.1172C195.097 45.1172 194.457 45.5604 194.235 46.2254C193.964 47.0381 193.817 47.8754 193.817 48.7374C193.817 53.4658 198.176 57.3323 203.544 57.3323C208.913 57.3323 213.272 53.4904 213.272 48.7374C213.223 44.5754 210.046 41.1029 205.465 40.3395ZM200.589 42.6298C200.589 42.6544 200.614 42.6544 200.614 42.6544L200.589 42.6298ZM201.106 43.1223C201.279 43.2209 201.476 43.2947 201.722 43.3194C201.5 43.2947 201.303 43.2455 201.106 43.1223Z" fill="#6600B3"/>
<path d="M203.52 83.4618C180.518 83.4618 161.801 64.7451 161.801 41.7432C161.801 18.7167 180.518 0 203.52 0C226.522 0 245.238 18.7167 245.238 41.7186C245.263 64.7451 226.546 83.4618 203.52 83.4618ZM203.52 4.43291C182.956 4.43291 166.234 21.1548 166.234 41.7186C166.234 62.2824 182.956 79.0043 203.52 79.0043C224.084 79.0043 240.806 62.2824 240.806 41.7186C240.83 21.1548 224.084 4.43291 203.52 4.43291Z" fill="#6600B3"/>
</svg>
