<svg width="258" height="248" viewBox="0 0 258 248" fill="none" xmlns="http://www.w3.org/2000/svg">
<path d="M141.531 102.352C142.563 99.6919 143.078 96.896 143.676 94.1272C144.273 91.3042 145.006 88.5626 145.929 85.821C146.933 82.8623 148.019 79.9307 149.213 77.0534C150.19 74.719 151.167 72.3574 152.389 70.1316C146.173 68.3672 138.844 70.3758 133.904 75.7776C127.307 82.998 127.47 93.5301 134.229 99.3119C136.319 101.103 138.79 102.216 141.423 102.705C141.45 102.596 141.477 102.488 141.531 102.352Z" fill="#FEFDFF"/>
<path d="M160.412 90.9065C163.248 82.3383 160.285 73.6511 153.795 71.5032C147.305 69.3553 139.745 74.56 136.909 83.1282C134.074 91.6964 137.036 100.384 143.526 102.531C150.016 104.679 157.577 99.4747 160.412 90.9065Z" fill="#D7CBF7"/>
<path d="M156.571 89.907C159.407 81.3388 156.617 72.7089 150.34 70.6316C144.064 68.5544 136.677 73.8164 133.841 82.3846C131.006 90.9528 133.795 99.5826 140.072 101.66C146.348 103.737 153.735 98.4752 156.571 89.907Z" fill="#EFE8F9"/>
<path d="M145.196 97.6829C144.598 97.6829 144.11 97.1943 144.11 96.5972V76.7274C144.11 76.1302 144.598 75.6416 145.196 75.6416C145.793 75.6416 146.281 76.1302 146.281 76.7274V96.5972C146.281 97.1943 145.793 97.6829 145.196 97.6829Z" fill="#9C69FF"/>
<path d="M146.526 85.6039C146.526 85.6039 145.657 85.4681 145.277 85.4681C143.187 85.441 141.423 83.9752 141.423 82.2651C141.423 80.4736 143.187 79.0078 145.331 79.0078C147.503 79.0078 149.24 80.4736 149.24 82.2651C149.24 82.6723 149.159 83.0794 148.969 83.4594C148.779 83.8666 148.86 84.3281 149.213 84.6266C149.457 84.8438 149.783 84.9252 150.109 84.8709C150.434 84.8166 150.679 84.5995 150.842 84.328C151.167 83.6766 151.303 82.9708 151.303 82.2651C151.303 79.3606 148.616 76.999 145.331 76.999C142.047 76.999 139.36 79.3606 139.36 82.2651C139.36 84.7624 141.368 86.9339 144.137 87.4225L144.218 87.4496H144.273H144.3C145.44 87.5311 145.657 87.5583 145.684 87.5583H145.793C147.421 87.6397 149.267 89.0241 149.267 90.7613C149.267 92.5528 147.503 94.0186 145.358 94.0186C143.187 94.0186 141.45 92.5528 141.45 90.7613C141.45 90.4627 141.504 90.1641 141.585 89.8655C141.694 89.5669 141.64 89.2141 141.45 88.9698C141.26 88.6983 140.934 88.5354 140.608 88.5354C140.174 88.5354 139.794 88.8069 139.631 89.214C139.468 89.7026 139.387 90.2184 139.387 90.7613C139.387 93.6658 142.074 96.0273 145.358 96.0273C148.643 96.0273 151.33 93.6658 151.33 90.7613C151.276 88.2097 149.322 86.0925 146.526 85.6039ZM143.866 87.3139C143.974 87.3682 144.083 87.4225 144.246 87.4225C144.11 87.4225 143.974 87.3953 143.866 87.3139Z" fill="#6600B3"/>
<path d="M145.223 104.605C135.315 104.605 127.226 96.5429 127.226 86.6351C127.226 76.7274 135.288 68.6655 145.223 68.6655C155.158 68.6655 163.22 76.7274 163.22 86.6351C163.192 96.5429 155.131 104.605 145.223 104.605ZM145.223 71.8143C137.052 71.8143 130.375 78.4647 130.375 86.6351C130.375 94.8056 137.025 101.456 145.223 101.456C153.42 101.456 160.071 94.8056 160.071 86.6351C160.071 78.4647 153.393 71.8143 145.223 71.8143Z" fill="#6600B3"/>
<path d="M76.1131 138.454C77.1446 135.794 77.6603 132.998 78.2575 130.229C78.8546 127.406 79.5876 124.665 80.5105 121.923C81.5148 118.964 82.6006 116.033 83.7949 113.155C84.7721 110.821 85.7494 108.459 86.9709 106.234C80.7548 104.469 73.4258 106.478 68.4855 111.88C61.8894 119.1 62.0523 129.632 68.8112 135.414C70.9013 137.205 73.3715 138.318 76.0045 138.807C76.0316 138.698 76.0588 138.59 76.1131 138.454Z" fill="#FEFDFF"/>
<path d="M94.9956 127.011C97.8312 118.443 94.8686 109.756 88.3784 107.608C81.8882 105.46 74.3282 110.665 71.4926 119.233C68.6569 127.801 71.6195 136.489 78.1097 138.636C84.5999 140.784 92.16 135.58 94.9956 127.011Z" fill="#D7CBF7"/>
<path d="M91.1547 126.012C93.9904 117.444 91.2008 108.814 84.9241 106.737C78.6474 104.659 71.2604 109.921 68.4248 118.49C65.5892 127.058 68.3787 135.688 74.6554 137.765C80.9321 139.842 88.3191 134.58 91.1547 126.012Z" fill="#EFE8F9"/>
<path d="M79.7775 133.785C79.1803 133.785 78.6917 133.297 78.6917 132.699V112.83C78.6917 112.232 79.1803 111.744 79.7775 111.744C80.3747 111.744 80.8633 112.232 80.8633 112.83V132.699C80.8633 133.297 80.3747 133.785 79.7775 133.785Z" fill="#9C69FF"/>
<path d="M81.1076 121.706C81.1076 121.706 80.239 121.57 79.8589 121.57C77.7688 121.543 76.0044 120.077 76.0044 118.367C76.0044 116.576 77.7688 115.11 79.9132 115.11C82.0848 115.11 83.822 116.576 83.822 118.367C83.822 118.774 83.7406 119.181 83.5506 119.561C83.3606 119.969 83.442 120.43 83.7949 120.729C84.0392 120.946 84.3649 121.027 84.6907 120.973C85.0164 120.919 85.2607 120.702 85.4235 120.43C85.7493 119.779 85.885 119.073 85.885 118.367C85.885 115.463 83.1977 113.101 79.9132 113.101C76.6288 113.101 73.9415 115.463 73.9415 118.367C73.9415 120.864 75.9502 123.036 78.7189 123.525L78.8003 123.552H78.8546H78.8817C80.0218 123.633 80.239 123.66 80.2661 123.66H80.3747C82.0034 123.742 83.8492 125.126 83.8492 126.863C83.8492 128.655 82.0848 130.121 79.9404 130.121C77.7688 130.121 76.0316 128.655 76.0316 126.863C76.0316 126.565 76.0859 126.266 76.1673 125.968C76.2759 125.669 76.2216 125.316 76.0316 125.072C75.8416 124.8 75.5158 124.637 75.1901 124.637C74.7558 124.637 74.3758 124.909 74.2129 125.316C74.05 125.805 73.9686 126.32 73.9686 126.863C73.9686 129.768 76.6559 132.129 79.9404 132.129C83.2249 132.129 85.9122 129.768 85.9122 126.863C85.8579 124.312 83.9035 122.195 81.1076 121.706ZM78.4474 123.416C78.556 123.47 78.6646 123.525 78.8275 123.525C78.6917 123.525 78.556 123.497 78.4474 123.416Z" fill="#6600B3"/>
<path d="M79.8047 140.707C69.897 140.707 61.808 132.645 61.808 122.737C61.808 112.829 69.8699 104.768 79.8047 104.768C89.7396 104.768 97.8015 112.829 97.8015 122.737C97.7743 132.645 89.7125 140.707 79.8047 140.707ZM79.8047 107.916C71.6343 107.916 64.9567 114.567 64.9567 122.737C64.9567 130.908 71.6071 137.558 79.8047 137.558C88.0024 137.558 94.6527 130.908 94.6527 122.737C94.6527 114.567 87.9752 107.916 79.8047 107.916Z" fill="#6600B3"/>
<path d="M228.203 42.8512C229.425 39.6482 230.076 36.2551 230.782 32.9163C231.488 29.4961 232.384 26.1845 233.497 22.9001C234.718 19.317 236.021 15.7882 237.46 12.3137C238.627 9.51785 239.794 6.64049 241.287 3.98033C233.795 1.83592 224.946 4.27897 218.974 10.8208C211.021 19.5342 211.211 32.2649 219.381 39.2138C221.906 41.3582 224.892 42.7155 228.068 43.2855C228.122 43.1226 228.149 42.987 228.203 42.8512Z" fill="#FEFDFF"/>
<path d="M250.974 29.0187C254.398 18.6714 250.828 8.18308 243 5.59241C235.172 3.00173 226.05 9.28972 222.626 19.637C219.201 29.9844 222.771 40.4727 230.599 43.0634C238.427 45.6541 247.549 39.366 250.974 29.0187Z" fill="#D7CBF7"/>
<path d="M246.359 27.8101C249.783 17.4628 246.421 7.04325 238.849 4.53736C231.277 2.03147 222.363 8.38817 218.938 18.7355C215.514 29.0828 218.876 39.5024 226.448 42.0083C234.02 44.5142 242.934 38.1574 246.359 27.8101Z" fill="#EFE8F9"/>
<path d="M232.628 45.0769C220.657 45.0769 210.912 35.3592 210.912 23.3885C210.912 11.4449 220.657 1.70007 232.628 1.70007C244.599 1.70007 254.343 11.4178 254.343 23.3885C254.343 35.332 244.599 45.0769 232.628 45.0769ZM232.628 5.5003C222.747 5.5003 214.713 13.535 214.713 23.3885C214.713 33.2419 222.747 41.2767 232.628 41.2767C242.508 41.2767 250.543 33.2419 250.543 23.3885C250.543 13.535 242.508 5.5003 232.628 5.5003Z" fill="#6600B3"/>
<path d="M232.302 15.5167C231.298 15.5167 230.484 16.3311 230.484 17.3355V31.6677C230.484 32.672 231.298 33.4864 232.302 33.4864C233.307 33.4864 234.121 32.672 234.121 31.6677V17.3355C234.094 16.3311 233.279 15.5167 232.302 15.5167Z" fill="#9C69FF"/>
<path d="M232.547 13.1279L223.697 22.9813C223.019 23.7142 223.1 24.8815 223.833 25.5329C224.566 26.2115 225.733 26.1301 226.385 25.3972L232.384 18.7196L237.731 25.3429C238.355 26.1301 239.496 26.2387 240.283 25.6144C241.07 24.9901 241.179 23.8499 240.554 23.0628L232.547 13.1279Z" fill="#6600B3"/>
<path d="M48.1 234.898C47.4213 234.898 46.7428 234.627 46.2542 234.057C45.3584 233.052 45.4669 231.505 46.4713 230.609C50.7601 226.836 53.936 212.341 57.0305 198.307C62.0522 175.397 67.2639 151.7 80.3747 151.7C93.3226 151.7 97.6386 164.051 101.113 173.959C104.072 182.455 106.135 187.64 110.451 187.07C111.699 186.907 113.735 185.522 116.341 179.931C118.54 175.18 120.576 168.774 122.72 161.961C128.8 142.688 135.695 120.864 151.33 120.864C151.385 120.864 151.439 120.864 151.493 120.864C158.035 120.919 163.22 124.284 167.373 131.152C170.766 136.798 173.073 144.127 175.299 151.212C179.208 163.671 182.899 175.452 191.504 175.56H191.531C194.951 175.56 203.42 170.647 209.501 125.75C212.975 100.126 213.844 74.0944 213.844 73.8501C213.898 72.4929 215.011 71.4614 216.368 71.4886C217.726 71.5428 218.784 72.6557 218.73 74.0129C218.73 74.2844 217.834 100.506 214.36 126.402C212.297 141.684 209.718 153.872 206.732 162.64C202.633 174.61 197.666 180.446 191.558 180.446C191.531 180.446 191.477 180.446 191.45 180.446C179.289 180.311 174.892 166.277 170.63 152.678C168.486 145.864 166.287 138.807 163.192 133.676C159.962 128.329 156.216 125.805 151.466 125.75C151.439 125.75 151.385 125.75 151.357 125.75C139.305 125.75 132.981 145.756 127.416 163.427C122.557 178.79 118.73 190.897 111.129 191.901C107.221 192.417 103.963 190.707 101.439 186.852C99.4573 183.839 98.0457 179.822 96.5528 175.56C93.2955 166.223 89.9024 156.559 80.429 156.559C76.6288 156.559 73.0457 160.848 69.8155 169.317C66.6125 177.65 64.1966 188.671 61.8622 199.339C58.3063 215.49 55.2661 229.442 49.7558 234.274C49.2672 234.681 48.67 234.898 48.1 234.898Z" fill="#9C69FF"/>
<path d="M238.6 247.113H2.443C1.08578 247.113 0 246.028 0 244.67C0 243.313 1.08578 242.227 2.443 242.227H233.714V65.2455C233.714 63.8883 234.799 62.8025 236.157 62.8025C237.514 62.8025 238.6 63.8883 238.6 65.2455V247.113Z" fill="#6600B3"/>
</svg>
