<svg width="275" height="224" viewBox="0 0 275 224" fill="none" xmlns="http://www.w3.org/2000/svg">
<g clip-path="url(#clip0)">
<path d="M52.1603 199.03H24.3287V214.545H52.1603V199.03Z" fill="#D7CBF7"/>
<path d="M252.26 199.03H224.428V214.545H252.26V199.03Z" fill="#D7CBF7"/>
<path d="M268.575 10.4242H6.09418V193.697H268.575V10.4242Z" fill="white"/>
<path d="M148.707 9.40601L70.8267 192.727H268.575V9.45449L148.707 9.40601Z" fill="#EFE8F9"/>
<path d="M240.935 9.40601L193.67 192.727H267.615V9.45449L240.935 9.40601Z" fill="#D7CBF7"/>
<path d="M274.765 12.6061C273.23 9.35758 271.358 6.73939 269.055 4.8C266.752 2.81212 264.064 1.45455 260.945 0.678788C259.266 0.242424 257.442 0.0484849 255.523 0.0484849C197.173 0 138.774 0 80.4237 0H19.5301C10.6048 0 4.12675 4.07273 0.191942 12.1697L0 12.5091V91.6364C0 94.6424 2.39928 97.0667 5.37438 97.0667C8.34948 97.0667 10.7488 94.6424 10.7488 91.6364C10.7488 88.8242 10.7488 22.7394 10.7488 21.2848C10.7488 17.2606 11.4685 14.7394 12.9561 13.2848C14.4916 11.8303 17.1308 11.1515 21.3536 11.1515C55.8072 11.1515 90.2128 11.1515 124.666 11.1515C141.605 11.1515 158.544 11.1515 175.483 11.1515C201.971 11.1515 228.459 11.1515 254.899 11.1515C261.041 11.1515 263.872 13.8667 263.872 19.7333C263.92 52.1697 263.92 85.1394 263.92 117.042V157.721C263.92 165.333 263.92 172.994 263.92 180.606C263.92 183.612 263.201 185.891 261.713 187.394C260.225 188.897 257.826 189.673 254.659 189.673H137.095H135.415H106.96C77.9285 189.673 48.8972 189.673 19.866 189.673C13.6759 189.673 10.6528 186.812 10.6528 180.897C10.6528 148.412 10.6528 163.491 10.6528 131.006C10.6528 128 8.25351 125.576 5.27841 125.576C2.39928 125.576 0 128 0 131.006V188.218L0.143957 188.558C3.07107 194.715 7.6297 198.545 14.0118 200.339C14.2037 200.582 14.3957 201.115 14.4436 201.455C14.5396 203.394 14.5396 205.43 14.4916 207.37C14.4916 208.776 14.4436 210.182 14.4916 211.636C14.6356 219.103 18.9543 223.564 26.392 223.855C32.1983 224.097 37.9086 224 43.3309 223.903C48.6573 223.806 52.5921 221.236 54.7515 216.436C55.7112 214.352 56.6709 212.218 57.6306 210.133C58.8302 207.564 60.0299 204.897 61.2295 202.279C61.7574 201.067 62.1892 200.679 63.6768 200.679C112.766 200.776 162.335 200.776 211.04 200.679C212.528 200.679 212.96 201.067 213.488 202.279C214.447 204.461 215.455 206.642 216.463 208.776C217.566 211.2 218.766 213.673 219.822 216.145C222.029 221.236 226.012 223.855 231.722 223.952C234.409 224 237.24 224.048 240.072 224.048C242.567 224.048 245.11 224 247.653 223.952C255.811 223.709 260.177 219.2 260.225 211.055C260.225 209.891 260.225 208.727 260.225 207.612C260.225 205.624 260.178 203.539 260.273 201.503C260.273 201.115 260.561 200.533 260.753 200.339C269.679 196.364 270.494 195.83 274.717 187.539L274.909 187.152V12.9455L274.765 12.6061ZM48.8013 202.23C47.2657 205.576 45.8262 208.727 44.2426 211.782C44.0987 212.073 43.235 212.655 42.7551 212.655C37.3807 212.848 32.1983 212.8 27.3517 212.606C27.0638 212.558 26.392 212.17 26.1041 211.879C25.9122 208.824 25.9602 205.818 25.9602 202.618C25.9602 202.036 25.9602 201.455 25.9602 200.873H49.4251C49.1852 201.358 48.9932 201.794 48.8013 202.23ZM248.661 211.733C248.469 212.024 247.893 212.509 247.653 212.606C242.999 212.8 238.056 212.8 231.626 212.655C231.338 212.655 230.762 212.267 230.618 212.073C228.987 208.873 227.499 205.624 225.916 202.182C225.724 201.794 225.532 201.406 225.388 200.97H248.805C248.805 201.552 248.805 202.085 248.805 202.667C248.805 205.818 248.853 208.727 248.661 211.733Z" fill="#6600B3"/>
<path d="M192.038 73.9394C198.266 73.9394 203.315 71.5516 203.315 68.606C203.315 65.6605 198.266 63.2727 192.038 63.2727C185.81 63.2727 180.761 65.6605 180.761 68.606C180.761 71.5516 185.81 73.9394 192.038 73.9394Z" fill="white"/>
<path d="M229.947 74.4242C236.175 74.4242 241.223 72.0364 241.223 69.0909C241.223 66.1454 236.175 63.7576 229.947 63.7576C223.719 63.7576 218.67 66.1454 218.67 69.0909C218.67 72.0364 223.719 74.4242 229.947 74.4242Z" fill="white"/>
<path d="M229.947 104.97C236.175 104.97 241.223 102.365 241.223 99.1516C241.223 95.9383 236.175 93.3334 229.947 93.3334C223.719 93.3334 218.67 95.9383 218.67 99.1516C218.67 102.365 223.719 104.97 229.947 104.97Z" fill="white"/>
<path d="M192.038 104C198.266 104 203.315 101.612 203.315 98.6667C203.315 95.7212 198.266 93.3334 192.038 93.3334C185.81 93.3334 180.761 95.7212 180.761 98.6667C180.761 101.612 185.81 104 192.038 104Z" fill="white"/>
<path d="M192.038 134.545C198.266 134.545 203.315 132.158 203.315 129.212C203.315 126.267 198.266 123.879 192.038 123.879C185.81 123.879 180.761 126.267 180.761 129.212C180.761 132.158 185.81 134.545 192.038 134.545Z" fill="white"/>
<path d="M229.947 135.515C236.175 135.515 241.223 132.693 241.223 129.212C241.223 125.731 236.175 122.909 229.947 122.909C223.719 122.909 218.67 125.731 218.67 129.212C218.67 132.693 223.719 135.515 229.947 135.515Z" fill="white"/>
<path d="M230.331 81.5515C228.075 81.4545 226.3 81.4545 224.524 81.2606C218.094 80.5818 213.44 75.2 213.68 68.8C213.871 62.3515 218.814 57.2606 225.244 56.9697C228.315 56.8242 231.386 56.8242 234.457 56.9697C240.887 57.2606 245.878 62.3515 246.07 68.7515C246.262 75.0061 241.751 80.3879 235.513 81.2606C233.642 81.503 231.77 81.503 230.331 81.5515ZM229.803 73.9394C231.482 73.8424 233.066 73.9394 234.601 73.697C237.048 73.2606 238.44 71.6121 238.488 69.1394C238.488 66.8121 237.192 64.9697 234.841 64.7273C231.53 64.4364 228.123 64.3879 224.812 64.7273C222.509 64.9212 221.309 66.8121 221.261 69.1879C221.213 71.6121 222.509 73.1636 224.86 73.6C226.54 73.8909 228.219 73.8424 229.803 73.9394Z" fill="#9C69FF"/>
<path d="M191.846 56.9681C193.525 56.9681 195.205 56.8712 196.884 56.9681C203.026 57.356 207.777 62.253 208.113 68.5075C208.449 74.6166 204.178 80.3863 198.084 81.1136C193.909 81.5985 189.542 81.5985 185.368 81.0651C179.705 80.3863 175.483 74.5197 175.77 68.75C176.106 62.4954 180.569 57.55 186.519 57.0651C188.295 56.9197 190.07 57.0651 191.846 57.0651C191.846 56.9681 191.846 56.9681 191.846 56.9681ZM191.942 73.9378C193.381 73.8409 195.301 73.8894 197.124 73.55C199.283 73.1136 200.531 71.5136 200.579 69.2833C200.675 67.0045 199.475 65.1136 197.364 64.8712C193.861 64.4833 190.262 64.4348 186.759 64.7742C184.504 65.0166 183.256 66.9075 183.304 69.3318C183.352 71.8045 184.792 73.2106 187.095 73.6469C188.535 73.8894 190.022 73.8409 191.942 73.9378Z" fill="#9C69FF"/>
<path d="M229.947 117.091C231.722 117.091 233.546 116.945 235.273 117.139C241.367 117.77 246.022 123.006 246.07 129.115C246.166 135.176 241.559 140.752 235.513 141.333C231.578 141.673 227.547 141.673 223.661 141.285C217.854 140.703 213.536 135.079 213.632 128.97C213.776 123.055 218.238 117.818 223.948 117.236C225.916 117.042 227.931 117.188 229.899 117.188C229.947 117.139 229.947 117.139 229.947 117.091ZM229.995 133.964C231.29 134.012 232.586 134.109 233.833 133.964C236.713 133.721 238.584 131.685 238.536 129.164C238.488 126.739 236.713 124.8 233.929 124.606C231.194 124.412 228.411 124.412 225.676 124.655C222.845 124.897 221.261 126.788 221.309 129.358C221.357 131.879 223.085 133.673 225.868 133.915C227.211 134.061 228.603 133.964 229.995 133.964Z" fill="#9C69FF"/>
<path d="M221.981 110.691C216.415 109.042 213.104 103.564 213.727 97.6485C214.303 92.2182 218.862 87.5637 224.332 87.1273C228.075 86.8364 231.866 86.8849 235.609 87.1758C241.415 87.6607 245.974 93.0425 246.07 99.1031C246.118 105.309 241.559 110.642 235.513 111.224C233.689 111.418 224.476 111.418 221.981 110.691ZM229.995 103.855C229.995 103.806 229.995 103.806 229.995 103.758C231.482 103.758 232.97 103.903 234.409 103.709C237.048 103.37 238.536 101.673 238.44 99.0061C238.344 96.5334 236.952 94.7879 234.409 94.594C231.386 94.4001 228.267 94.3516 225.244 94.594C222.605 94.7879 221.165 96.6304 221.213 99.2485C221.309 101.915 222.893 103.467 225.484 103.758C227.019 104 228.507 103.855 229.995 103.855Z" fill="#9C69FF"/>
<path d="M191.846 117.091C193.622 117.091 195.445 116.945 197.172 117.139C203.411 117.721 208.113 123.006 208.113 129.261C208.113 135.612 203.267 140.994 196.885 141.43C193.622 141.624 190.359 141.576 187.096 141.43C180.665 141.091 175.867 135.952 175.723 129.455C175.627 122.861 180.474 117.576 187.048 117.139C188.631 116.994 190.263 117.091 191.846 117.091ZM191.894 133.915C191.894 133.964 191.894 133.964 191.894 133.915C193.286 133.964 194.677 134.061 196.021 133.915C198.756 133.624 200.531 131.733 200.579 129.261C200.627 126.788 198.9 124.8 196.117 124.606C193.286 124.412 190.359 124.412 187.527 124.655C184.984 124.897 183.353 126.448 183.257 129.164C183.161 131.636 184.984 133.527 187.719 133.867C189.111 134.061 190.502 133.915 191.894 133.915Z" fill="#9C69FF"/>
<path d="M192.038 87.0788C197.316 86.6909 201.971 87.2242 205.378 91.4424C208.401 95.2242 208.881 99.4909 207.153 103.854C205.522 108.073 202.307 110.739 197.796 111.127C194.053 111.467 190.263 111.515 186.52 111.176C180.234 110.642 175.627 105.261 175.723 99.006C175.819 92.7515 180.569 87.5636 186.808 87.0303C188.679 86.9333 190.55 87.0788 192.038 87.0788ZM191.798 103.806C191.798 103.854 191.798 103.903 191.798 104C193.478 103.903 195.205 104 196.837 103.709C199.284 103.224 200.675 101.624 200.579 99.0545C200.483 96.6787 199.14 94.9818 196.789 94.7878C193.67 94.5454 190.455 94.4969 187.335 94.7393C184.888 94.9333 183.353 96.5818 183.305 99.1515C183.257 101.867 184.84 103.418 187.383 103.854C188.775 104.048 190.311 103.806 191.798 103.806Z" fill="#9C69FF"/>
<path d="M138.534 151.03C137.335 151.03 136.135 150.545 135.319 149.576L50.8646 53.0909C49.2811 51.297 49.4731 48.5333 51.2485 46.9333C53.024 45.3333 55.7592 45.5273 57.3427 47.3212L141.797 143.806C143.381 145.6 143.189 148.364 141.413 149.964C140.598 150.691 139.59 151.03 138.534 151.03Z" fill="#9C69FF"/>
<path d="M52.1603 151.03C51.1046 151.03 50.0489 150.642 49.1852 149.867C47.4577 148.218 47.3617 145.455 48.9932 143.709L136.327 49.6485C137.958 47.9031 140.694 47.8061 142.421 49.4546C144.148 51.1031 144.244 53.8667 142.613 55.6122L55.2793 149.673C54.4636 150.545 53.3119 151.03 52.1603 151.03Z" fill="#9C69FF"/>
<path d="M95.3472 168C95.2993 168 95.2513 168 95.2033 168C92.804 167.952 90.9326 165.915 91.0286 163.491L94.8674 34.5212C94.9154 32.0969 96.9308 30.206 99.33 30.303C101.729 30.3515 103.601 32.3879 103.505 34.8121L99.6659 163.782C99.618 166.109 97.6985 168 95.3472 168Z" fill="#9C69FF"/>
<path d="M157.249 104L31.5265 103.515C29.1272 103.515 27.2078 101.527 27.2078 99.1515C27.2078 96.7272 29.1272 94.7878 31.5265 94.7878L157.249 95.2727C159.648 95.2727 161.567 97.2606 161.567 99.6363C161.567 102.061 159.648 104 157.249 104Z" fill="#9C69FF"/>
<path d="M156.481 84.7031C154.753 85.5273 153.746 87.4182 154.081 89.3576C154.609 92.5576 154.897 95.8546 154.897 99.1516C154.897 133.091 126.922 160.533 93.0439 159.224C62.1412 158.012 37.1408 132.752 35.9411 101.527C34.6455 67.297 61.8053 39.0303 95.3952 39.0303C113.342 39.0303 129.513 47.1273 140.406 59.8788C141.749 61.4788 144.005 61.8182 145.828 60.7515C145.876 60.7515 145.876 60.703 145.924 60.703C148.227 59.3455 148.755 56.2424 147.028 54.2061C134.167 39.1758 115.021 29.7697 93.7157 30.303C57.5346 31.2243 28.1675 60.9455 27.3038 97.5031C26.392 136.679 58.0625 168.727 96.7868 167.952C132.728 167.273 162.143 138.085 163.535 101.77C163.727 96.9697 163.391 92.3152 162.671 87.8061C162.191 84.994 159.216 83.394 156.625 84.6061C156.529 84.6546 156.529 84.7031 156.481 84.7031Z" fill="#6600B3"/>
<path d="M96.3069 136C116.183 136 132.296 119.719 132.296 99.6363C132.296 79.5533 116.183 63.2727 96.3069 63.2727C76.4306 63.2727 60.3177 79.5533 60.3177 99.6363C60.3177 119.719 76.4306 136 96.3069 136Z" fill="white"/>
<path d="M96.3069 140.364C74.0896 140.364 55.9991 122.085 55.9991 99.6363C55.9991 77.1878 74.0896 58.9091 96.3069 58.9091C118.524 58.9091 136.615 77.1878 136.615 99.6363C136.615 122.085 118.572 140.364 96.3069 140.364ZM96.3069 67.6363C78.8402 67.6363 64.6365 81.9878 64.6365 99.6363C64.6365 117.285 78.8402 131.636 96.3069 131.636C113.774 131.636 127.977 117.285 127.977 99.6363C127.977 81.9878 113.774 67.6363 96.3069 67.6363Z" fill="#6600B3"/>
<path d="M6.09414 117.091C9.27434 117.091 11.8524 114.486 11.8524 111.273C11.8524 108.059 9.27434 105.455 6.09414 105.455C2.91394 105.455 0.335876 108.059 0.335876 111.273C0.335876 114.486 2.91394 117.091 6.09414 117.091Z" fill="#8C43FF"/>
<path d="M152.45 78.303C155.63 78.303 158.208 75.6981 158.208 72.4848C158.208 69.2715 155.63 66.6666 152.45 66.6666C149.27 66.6666 146.692 69.2715 146.692 72.4848C146.692 75.6981 149.27 78.303 152.45 78.303Z" fill="#8C43FF"/>
<path d="M82.775 77.4303C96.8827 67.0061 112.958 67.6848 122.651 81.4061C132.344 95.1273 128.841 114.715 114.685 125.139C100.53 135.564 84.5025 134.885 74.8094 121.164C65.1163 107.442 68.6672 87.8545 82.775 77.4303Z" fill="#D7CBF7"/>
<path d="M75.2893 85.1879C85.1263 70.5455 101.969 64.8242 112.91 72.3879C123.851 79.9515 127.162 98.8121 115.789 114.279C105.376 128.485 91.0285 134.352 78.8882 126.4C66.8438 118.497 65.4522 99.7818 75.2893 85.1879Z" fill="#EFE8F9"/>
</g>
<defs>
<clipPath id="clip0">
<rect width="274.909" height="224" fill="white"/>
</clipPath>
</defs>
</svg>
