<svg width="270" height="337" viewBox="0 0 270 337" fill="none" xmlns="http://www.w3.org/2000/svg">
<path d="M62.562 246.191C60.5083 246.191 58.655 244.789 58.1541 242.685C57.6031 240.28 59.1058 237.826 61.5602 237.275C65.4672 236.373 69.4243 235.823 73.2312 235.221C77.4387 234.57 81.4458 234.019 85.453 233.017C87.8573 232.416 90.3118 233.919 90.9129 236.323C91.5139 238.728 90.0112 241.182 87.6069 241.783C83.199 242.885 78.8412 243.536 74.5836 244.137C70.7767 244.688 67.2204 245.239 63.6139 246.041C63.2132 246.141 62.8625 246.191 62.562 246.191Z" fill="#6600B3"/>
<path d="M98.0756 223.901C95.5711 223.901 93.5675 221.898 93.5675 219.393C93.5675 183.93 93.5676 146.112 93.5175 108.244C93.5175 105.74 95.5211 103.736 98.0256 103.736C100.53 103.736 102.534 105.74 102.534 108.244C102.584 146.112 102.584 183.93 102.584 219.393C102.584 221.898 100.53 223.901 98.0756 223.901Z" fill="#6600B3"/>
<path d="M118.212 277.597C117.711 277.597 117.16 277.497 116.659 277.347C114.305 276.495 113.103 273.891 113.954 271.587C115.657 266.828 117.26 262.019 118.813 257.361C120.616 251.851 122.469 246.191 124.623 240.581C124.623 226.806 124.623 212.581 124.473 198.856C124.473 196.352 126.426 194.348 128.931 194.298C131.385 194.248 133.439 196.252 133.489 198.756C133.639 212.831 133.639 227.357 133.639 241.383V242.234L133.339 242.985C131.185 248.646 129.231 254.506 127.378 260.166C125.825 264.875 124.223 269.783 122.469 274.642C121.768 276.495 120.065 277.597 118.212 277.597Z" fill="#6600B3"/>
<path d="M128.981 179.071C126.477 179.071 124.473 177.017 124.473 174.513C124.623 159.736 124.623 145.16 124.473 129.933C124.473 127.428 126.477 125.425 128.931 125.375H128.981C131.435 125.375 133.489 127.378 133.489 129.833C133.639 145.11 133.639 159.736 133.489 174.563C133.489 177.067 131.486 179.071 128.981 179.071Z" fill="#6600B3"/>
<path d="M155.679 236.373C153.475 236.373 151.571 234.771 151.221 232.567C151.171 232.116 151.071 231.665 151.121 178.82C151.121 165.697 151.171 152.573 151.171 142.706C151.171 137.797 151.171 133.689 151.221 130.834C151.221 129.382 151.221 128.28 151.221 127.478C151.221 125.926 151.271 123.07 154.377 122.019L155.779 126.326L156.781 130.734C159.035 130.233 160.237 128.23 160.287 126.527C160.187 129.732 160.087 227.558 160.187 231.515C160.187 231.615 160.187 231.715 160.187 231.815C160.187 234.32 158.133 236.373 155.679 236.373ZM159.936 230.463C160.037 230.763 160.087 231.114 160.137 231.465C160.137 231.114 160.037 230.763 159.936 230.463ZM155.679 227.357C156.931 227.357 158.033 227.858 158.885 228.66C158.083 227.858 156.981 227.357 155.679 227.357Z" fill="#6600B3"/>
<path d="M164.294 263.272C162.792 263.272 161.339 262.52 160.488 261.168C160.037 260.417 158.284 257.862 156.731 255.558C155.028 253.003 153.375 250.599 152.874 249.747C151.521 247.644 152.173 244.839 154.276 243.536C156.38 242.184 159.185 242.835 160.488 244.939C160.938 245.69 162.691 248.245 164.244 250.549C165.947 253.103 167.6 255.508 168.101 256.359C169.454 258.463 168.802 261.268 166.699 262.57C165.947 263.071 165.146 263.272 164.294 263.272Z" fill="#6600B3"/>
<path d="M179.722 196.452C177.217 196.452 175.214 194.448 175.214 191.944V116.108C175.214 113.604 177.217 111.6 179.722 111.6C182.226 111.6 184.23 113.604 184.23 116.108V191.944C184.23 194.448 182.176 196.452 179.722 196.452Z" fill="#6600B3"/>
<path d="M215.336 230.713C214.484 230.713 213.633 230.463 212.881 229.962L187.987 213.633C185.883 212.28 185.332 209.475 186.684 207.371C188.037 205.268 190.842 204.717 192.946 206.069L217.84 222.398C219.944 223.751 220.495 226.556 219.143 228.66C218.241 230.012 216.788 230.713 215.336 230.713Z" fill="#6600B3"/>
<path d="M224.803 56.8019C224.803 56.7017 224.803 56.6516 224.803 56.5514C224.803 33.41 206.019 14.6262 182.878 14.6262C171.457 14.6262 161.089 19.2345 153.525 26.6478C146.462 13.4241 132.537 4.40796 116.509 4.40796C96.1221 4.40796 79.1418 18.934 75.385 38.2185C72.029 37.5173 68.5727 37.1666 65.0164 37.1666C36.7157 37.1666 13.7245 60.1078 13.7245 88.4586C13.7245 114.706 33.4098 136.294 58.8554 139.35V139.7H212.681C214.634 140.001 216.638 140.101 218.642 140.101C241.783 140.101 260.567 121.317 260.567 98.1759C260.517 77.1883 244.989 59.8073 224.803 56.8019Z" fill="white"/>
<path d="M218.642 144.709C216.538 144.709 214.434 144.559 212.381 144.309H54.3474C28.3508 139.3 9.2666 115.407 9.2666 88.5587C9.2666 57.8036 34.3114 32.7588 65.0665 32.7588C67.4208 32.7588 69.7248 32.909 72.029 33.2095C77.7893 13.7246 95.8717 0 116.559 0C131.886 0 146.012 7.46342 154.627 19.8356C162.691 13.5744 172.559 10.2184 182.928 10.2184C207.321 10.2184 227.407 29.1523 229.211 53.1453C238.678 55.3492 247.243 60.5084 253.705 67.8716C261.068 76.3368 265.125 87.1562 265.125 98.3262C265.025 123.872 244.238 144.709 218.642 144.709ZM62.2114 135.242H212.982L213.282 135.292C215.035 135.543 218.542 134.942 220.345 134.942C240.982 134.942 259 117.5 256.059 98.2761C256.059 77.5 238.477 63.4136 220.295 60.7088L220.345 56.6014C220.345 35.9644 203.565 19.1844 182.928 19.1844C173.06 19.1844 163.743 22.9912 156.731 29.9036L152.423 34.1112L149.568 28.8016C143.056 16.5797 130.384 8.96614 116.559 8.96614C98.7269 8.96614 83.2992 21.6388 79.843 39.1201L78.9915 43.5781L74.5334 42.6764C71.4279 42.0253 68.2723 41.7248 65.0665 41.7248C39.2703 41.7248 18.2828 62.7123 18.2828 88.5086C18.2828 112.151 35.9644 132.137 59.4064 134.942L62.2114 135.242Z" fill="#6600B3"/>
<path d="M223.2 59.5085C224.5 63.7549 223.2 59.3582 223.2 59.258C223.2 37.1684 204.867 19.2864 182.226 19.2864C175.615 19.2864 168.5 21.5 163.5 24.5C164.001 25.7022 165.499 30.7978 166 32C168.5 41 168.702 44.2812 168.251 52.7464C167.751 62.4137 166.198 72.081 163.894 81.4978C161.89 89.6625 159.285 97.6768 156.38 105.541C153.425 113.655 150.319 121.72 146.663 129.534C145.21 132.589 144.703 132.095 143 135H205.5C207.403 135.25 217.496 135 219.5 135C236 135 256.5 121.845 256.5 99.7549C256.5 79.8192 242.985 62.3636 223.2 59.5085Z" fill="#EFE8F9"/>
<path d="M34.0109 285.261C50.9411 285.261 64.6658 271.536 64.6658 254.606C64.6658 237.676 50.9411 223.951 34.0109 223.951C17.0806 223.951 3.35599 237.676 3.35599 254.606C3.35599 271.536 17.0806 285.261 34.0109 285.261Z" fill="#D7CBF7"/>
<path d="M29.7031 285.762C44.9459 285.762 57.3026 272.037 57.3026 255.107C57.3026 238.177 44.9459 224.452 29.7031 224.452C14.4604 224.452 2.10374 238.177 2.10374 255.107C2.10374 272.037 14.4604 285.762 29.7031 285.762Z" fill="#EFE8F9"/>
<path d="M33.9608 272.188C32.959 272.188 32.1576 271.386 32.1576 270.384V237.826C32.1576 236.824 32.959 236.023 33.9608 236.023C34.9625 236.023 35.764 236.824 35.764 237.826V270.384C35.7139 271.386 34.9125 272.188 33.9608 272.188Z" fill="#9C69FF"/>
<path d="M36.1146 252.352C36.1146 252.352 34.6621 252.152 34.061 252.152C30.6048 252.102 27.7497 249.697 27.7497 246.892C27.7497 243.937 30.6549 241.583 34.1612 241.583C37.7176 241.583 40.5727 243.987 40.5727 246.892C40.5727 247.543 40.4224 248.245 40.1218 248.846C39.8213 249.497 39.9716 250.298 40.5226 250.749C40.9233 251.1 41.4742 251.25 41.9751 251.15C42.476 251.05 42.9269 250.699 43.1773 250.248C43.6782 249.196 43.9787 248.044 43.9787 246.892C43.9787 242.134 39.6209 238.277 34.2112 238.277C28.8015 238.277 24.4437 242.134 24.4437 246.892C24.4437 250.95 27.7497 254.506 32.2577 255.357H32.408H32.5082H32.5583C34.4117 255.508 34.7623 255.558 34.8124 255.558H34.9625C37.6674 255.708 40.6728 257.962 40.6728 260.767C40.6728 263.722 37.7676 266.077 34.2613 266.077C30.705 266.077 27.8498 263.672 27.8498 260.767C27.8498 260.266 27.95 259.765 28.1003 259.314C28.2505 258.814 28.2005 258.263 27.9 257.812C27.5994 257.361 27.0985 257.111 26.5476 257.111C25.8463 257.111 25.195 257.561 24.9446 258.212C24.6441 259.014 24.544 259.865 24.544 260.717C24.544 265.475 28.9018 269.332 34.3115 269.332C39.7212 269.332 44.079 265.475 44.079 260.717C43.9287 256.61 40.7229 253.153 36.1146 252.352ZM31.2058 254.656C31.2058 254.656 31.2058 254.706 31.2058 254.656C31.2058 254.706 31.2058 254.656 31.2058 254.656ZM31.7568 255.157C31.9071 255.257 32.1075 255.307 32.3579 255.357C32.1575 255.357 31.9071 255.257 31.7568 255.157Z" fill="#6600B3"/>
<path d="M33.51 287.615C15.0269 287.615 0 272.588 0 254.105C0 235.622 15.0269 220.595 33.51 220.595C51.9931 220.595 67.02 235.622 67.02 254.105C67.02 272.588 51.9931 287.615 33.51 287.615ZM33.51 225.003C17.4813 225.003 4.45794 238.026 4.45794 254.055C4.45794 270.084 17.4813 283.107 33.51 283.107C49.5387 283.107 62.5621 270.084 62.5621 254.055C62.5621 238.026 49.5387 225.003 33.51 225.003Z" fill="#6600B3"/>
<path d="M107.643 333.848C124.573 333.848 138.298 320.124 138.298 303.194C138.298 286.263 124.573 272.539 107.643 272.539C90.7126 272.539 76.9879 286.263 76.9879 303.194C76.9879 320.124 90.7126 333.848 107.643 333.848Z" fill="#D7CBF7"/>
<path d="M103.335 334.349C118.578 334.349 130.935 320.625 130.935 303.694C130.935 286.764 118.578 273.039 103.335 273.039C88.0923 273.039 75.7357 286.764 75.7357 303.694C75.7357 320.625 88.0923 334.349 103.335 334.349Z" fill="#EFE8F9"/>
<path d="M107.593 320.775C106.591 320.775 105.79 319.973 105.79 318.972V286.413C105.79 285.411 106.591 284.61 107.593 284.61C108.594 284.61 109.396 285.411 109.396 286.413V318.972C109.346 319.973 108.544 320.775 107.593 320.775Z" fill="#9C69FF"/>
<path d="M109.747 300.94C109.747 300.94 108.294 300.739 107.693 300.739C104.237 300.689 101.382 298.285 101.382 295.48C101.382 292.524 104.287 290.17 107.793 290.17C111.349 290.17 114.205 292.575 114.205 295.48C114.205 296.131 114.054 296.832 113.754 297.433C113.453 298.084 113.603 298.886 114.154 299.337C114.555 299.687 115.106 299.838 115.607 299.737C116.108 299.637 116.559 299.287 116.809 298.836C117.31 297.784 117.611 296.632 117.611 295.48C117.611 290.721 113.253 286.864 107.843 286.864C102.433 286.864 98.0756 290.721 98.0756 295.48C98.0756 299.537 101.382 303.093 105.89 303.945H106.04H106.14H106.19C108.044 304.095 108.394 304.145 108.444 304.145H108.594C111.299 304.295 114.305 306.55 114.305 309.355C114.305 312.31 111.4 314.664 107.893 314.664C104.337 314.664 101.482 312.26 101.482 309.355C101.482 308.854 101.582 308.353 101.732 307.902C101.882 307.401 101.832 306.85 101.532 306.399C101.231 305.948 100.73 305.698 100.179 305.698C99.4782 305.698 98.827 306.149 98.5765 306.8C98.276 307.601 98.1759 308.453 98.1759 309.304C98.1759 314.063 102.534 317.92 107.943 317.92C113.353 317.92 117.711 314.063 117.711 309.304C117.561 305.197 114.355 301.741 109.747 300.94ZM104.838 303.244C104.838 303.244 104.838 303.294 104.838 303.244C104.838 303.294 104.838 303.244 104.838 303.244ZM105.389 303.745C105.539 303.845 105.739 303.895 105.99 303.945C105.789 303.945 105.539 303.845 105.389 303.745Z" fill="#6600B3"/>
<path d="M107.142 336.202C88.6588 336.202 73.6319 321.176 73.6319 302.692C73.6319 284.209 88.6588 269.182 107.142 269.182C125.625 269.182 140.652 284.209 140.652 302.692C140.652 321.176 125.625 336.202 107.142 336.202ZM107.142 273.59C91.1132 273.59 78.0899 286.614 78.0899 302.642C78.0899 318.671 91.1132 331.694 107.142 331.694C123.171 331.694 136.194 318.671 136.194 302.642C136.194 286.614 123.171 273.59 107.142 273.59Z" fill="#6600B3"/>
<path d="M240.831 267.429C255.41 267.429 267.229 255.611 267.229 241.032C267.229 226.453 255.41 214.635 240.831 214.635C226.253 214.635 214.434 226.453 214.434 241.032C214.434 255.611 226.253 267.429 240.831 267.429Z" fill="#D7CBF7"/>
<path d="M237.075 267.83C250.187 267.83 260.817 256.011 260.817 241.433C260.817 226.854 250.187 215.035 237.075 215.035C223.962 215.035 213.332 226.854 213.332 241.433C213.332 256.011 223.962 267.83 237.075 267.83Z" fill="#EFE8F9"/>
<path d="M240.731 256.109C239.88 256.109 239.178 255.408 239.178 254.556V226.556C239.178 225.704 239.88 225.003 240.731 225.003C241.583 225.003 242.284 225.704 242.284 226.556V254.556C242.284 255.458 241.583 256.109 240.731 256.109Z" fill="#9C69FF"/>
<path d="M242.635 239.078C242.635 239.078 241.382 238.878 240.881 238.878C237.926 238.828 235.422 236.774 235.422 234.37C235.422 231.865 237.926 229.812 240.932 229.812C243.987 229.812 246.441 231.865 246.441 234.37C246.441 234.971 246.291 235.522 246.041 236.073C245.79 236.624 245.89 237.325 246.391 237.726C246.742 238.026 247.193 238.177 247.644 238.076C248.094 237.976 248.445 237.676 248.645 237.275C249.096 236.373 249.297 235.372 249.297 234.37C249.297 230.262 245.54 226.957 240.881 226.957C236.223 226.957 232.466 230.262 232.466 234.37C232.466 237.876 235.271 240.932 239.178 241.633H239.279H239.379H239.429C241.032 241.783 241.332 241.783 241.382 241.783H241.533C243.837 241.883 246.441 243.837 246.441 246.291C246.441 248.796 243.987 250.849 240.932 250.849C237.876 250.849 235.422 248.796 235.422 246.291C235.422 245.84 235.472 245.44 235.622 245.039C235.772 244.588 235.722 244.137 235.422 243.787C235.171 243.386 234.72 243.186 234.27 243.186C233.669 243.186 233.118 243.586 232.917 244.137C232.667 244.839 232.567 245.54 232.567 246.291C232.567 250.398 236.323 253.704 240.982 253.704C245.64 253.704 249.397 250.398 249.397 246.291C249.347 242.735 246.592 239.779 242.635 239.078ZM238.377 241.082C238.427 241.082 238.427 241.082 238.377 241.082C238.427 241.082 238.427 241.082 238.377 241.082ZM238.828 241.483C238.978 241.583 239.128 241.633 239.379 241.633C239.178 241.633 239.028 241.583 238.828 241.483Z" fill="#6600B3"/>
<path d="M240.381 269.433C224.452 269.433 211.529 256.51 211.529 240.581C211.529 224.653 224.452 211.729 240.381 211.729C256.309 211.729 269.232 224.653 269.232 240.581C269.232 256.46 256.259 269.433 240.381 269.433ZM240.381 215.536C226.606 215.536 215.336 226.756 215.336 240.581C215.336 254.356 226.556 265.576 240.381 265.576C254.205 265.576 265.426 254.356 265.426 240.581C265.375 226.756 254.155 215.536 240.381 215.536Z" fill="#6600B3"/>
<path d="M180.223 310.005C194.802 310.005 206.62 298.187 206.62 283.608C206.62 269.029 194.802 257.211 180.223 257.211C165.644 257.211 153.826 269.029 153.826 283.608C153.826 298.187 165.644 310.005 180.223 310.005Z" fill="#D7CBF7"/>
<path d="M176.466 310.406C189.579 310.406 200.209 298.588 200.209 284.009C200.209 269.43 189.579 257.611 176.466 257.611C163.353 257.611 152.724 269.43 152.724 284.009C152.724 298.588 163.353 310.406 176.466 310.406Z" fill="#EFE8F9"/>
<path d="M180.123 298.685C179.271 298.685 178.57 297.984 178.57 297.132V269.132C178.57 268.281 179.271 267.579 180.123 267.579C180.974 267.579 181.676 268.281 181.676 269.132V297.132C181.676 298.034 180.974 298.685 180.123 298.685Z" fill="#9C69FF"/>
<path d="M182.026 281.655C182.026 281.655 180.774 281.454 180.273 281.454C177.318 281.404 174.813 279.35 174.813 276.946C174.813 274.442 177.318 272.388 180.323 272.388C183.379 272.388 185.833 274.442 185.833 276.946C185.833 277.547 185.683 278.098 185.432 278.649C185.182 279.2 185.282 279.901 185.783 280.302C186.134 280.603 186.584 280.753 187.035 280.653C187.486 280.553 187.837 280.252 188.037 279.851C188.488 278.95 188.688 277.948 188.688 276.946C188.688 272.839 184.931 269.533 180.273 269.533C175.615 269.533 171.858 272.839 171.858 276.946C171.858 280.452 174.663 283.508 178.57 284.209H178.67H178.77H178.82C180.423 284.359 180.724 284.359 180.774 284.359H180.924C183.228 284.46 185.833 286.413 185.833 288.867C185.833 291.372 183.379 293.426 180.323 293.426C177.268 293.426 174.813 291.372 174.813 288.867C174.813 288.417 174.863 288.016 175.014 287.615C175.164 287.164 175.114 286.714 174.813 286.363C174.563 285.962 174.112 285.762 173.661 285.762C173.06 285.762 172.509 286.163 172.309 286.714C172.058 287.415 171.958 288.116 171.958 288.867C171.958 292.975 175.715 296.281 180.373 296.281C185.032 296.281 188.788 292.975 188.788 288.867C188.738 285.311 185.983 282.356 182.026 281.655ZM177.769 283.658C177.819 283.658 177.819 283.658 177.769 283.658C177.819 283.658 177.819 283.658 177.769 283.658ZM178.219 284.059C178.37 284.159 178.52 284.209 178.77 284.209C178.57 284.209 178.42 284.159 178.219 284.059Z" fill="#6600B3"/>
<path d="M179.772 312.009C163.844 312.009 150.92 299.086 150.92 283.157C150.92 267.229 163.844 254.306 179.772 254.306C195.701 254.306 208.624 267.229 208.624 283.157C208.624 299.036 195.651 312.009 179.772 312.009ZM179.772 258.112C165.997 258.112 154.727 269.333 154.727 283.157C154.727 296.932 165.947 308.152 179.772 308.152C193.597 308.152 204.817 296.932 204.817 283.157C204.767 269.333 193.547 258.112 179.772 258.112Z" fill="#6600B3"/>
<path d="M138.548 125.976C160.679 125.976 178.62 108.035 178.62 85.9038C178.62 63.7728 160.679 45.832 138.548 45.832C116.417 45.832 98.4763 63.7728 98.4763 85.9038C98.4763 108.035 116.417 125.976 138.548 125.976Z" fill="#D7CBF7"/>
<path d="M132.888 126.627C152.778 126.627 168.903 108.686 168.903 86.5549C168.903 64.4238 152.778 46.4831 132.888 46.4831C112.998 46.4831 96.8735 64.4238 96.8735 86.5549C96.8735 108.686 112.998 126.627 132.888 126.627Z" fill="#EFE8F9"/>
<path d="M137.847 130.634C112.802 130.634 92.4656 110.247 92.4656 85.2526C92.4656 60.2579 112.852 39.8714 137.847 39.8714C162.842 39.8714 183.228 60.2579 183.228 85.2526C183.228 110.247 162.892 130.634 137.847 130.634ZM137.847 48.8876C117.811 48.8876 101.482 65.2167 101.482 85.2526C101.482 105.289 117.811 121.618 137.847 121.618C157.883 121.618 174.212 105.289 174.212 85.2526C174.212 65.2167 157.883 48.8876 137.847 48.8876Z" fill="#6600B3"/>
<path d="M154.427 75.2847C153.074 72.68 151.171 70.3759 148.767 68.3723C143.958 64.4152 137.647 62.2614 130.935 62.2614C128.63 62.2614 126.376 62.1111 124.072 62.4117V66.6693L131.385 71.8286V69.6245C136.244 69.7247 140.802 71.2776 144.158 74.0826C147.464 76.7874 149.267 80.2936 149.267 84.0003C149.267 87.7069 147.464 91.2132 144.158 93.9181C140.752 96.7231 136.244 98.276 131.385 98.3761V95.9718L124.072 100.931V105.589C126.376 105.839 128.63 105.739 130.935 105.739C137.647 105.739 143.958 103.585 148.767 99.6284C151.171 97.6248 153.074 95.3206 154.427 92.716C155.829 89.961 156.58 87.0057 156.58 84.0003C156.53 80.9448 155.829 78.0396 154.427 75.2847Z" fill="#2F0F48"/>
<path d="M141.904 84.0505L131.385 91.2134L124.273 96.0721V71.5281L131.385 76.5872L141.904 84.0505Z" fill="#9C69FF"/>
</svg>
