<svg width="26" height="35" viewBox="0 0 26 35" fill="none" xmlns="http://www.w3.org/2000/svg">
<path d="M23.917 24.0329C22.8593 26.0787 21.3693 27.9084 19.4702 29.4678C15.6873 32.5791 10.6924 34.2929 5.40409 34.2929C3.58986 34.2929 1.79879 34.3933 0 34.1771V30.8343L5.75149 26.7581V28.4874C9.5884 28.4179 13.1628 27.175 15.8417 24.9747C18.4279 22.844 19.8484 20.0725 19.8484 17.162C19.8484 14.2515 18.4279 11.48 15.8417 9.3492C13.1628 7.14896 9.5884 5.90602 5.75149 5.83654V7.74341L0 3.82159V0.139084C1.79879 -0.0770799 3.58986 0.0232817 5.40409 0.0232817C10.6924 0.0232817 15.6873 1.73715 19.4624 4.83292C21.3616 6.39239 22.8516 8.22206 23.9092 10.2679C25.0287 12.445 25.5999 14.7533 25.5999 17.1465C25.5999 19.5398 25.0364 21.8635 23.917 24.0329Z" fill="#2F0F48"/>
<path d="M14.066 17.1156L5.75145 11.4413L0.138916 7.61989V26.9897L5.75145 23.0138L14.066 17.1156Z" fill="#9C69FF"/>
</svg>
