<svg width="38" height="22" viewBox="0 0 38 22" fill="none" xmlns="http://www.w3.org/2000/svg">
<path d="M10.6737 22C16.5686 22 21.3473 17.0751 21.3473 11C21.3473 4.92487 16.5686 0 10.6737 0C4.77876 0 0 4.92487 0 11C0 17.0751 4.77876 22 10.6737 22Z" fill="black"/>
<path d="M27.9125 21.9564C30.9301 21.9564 33.3764 17.0706 33.3764 11.0437C33.3764 5.01675 30.9301 0.130966 27.9125 0.130966C24.8949 0.130966 22.4486 5.01675 22.4486 11.0437C22.4486 17.0706 24.8949 21.9564 27.9125 21.9564Z" fill="black"/>
<path d="M35.7483 21.0833C36.5436 21.0833 37.1884 16.5884 37.1884 11.0436C37.1884 5.49889 36.5436 1.00397 35.7483 1.00397C34.9529 1.00397 34.3082 5.49889 34.3082 11.0436C34.3082 16.5884 34.9529 21.0833 35.7483 21.0833Z" fill="black"/>
</svg>
