<svg width="30" height="25" viewBox="0 0 30 25" fill="none" xmlns="http://www.w3.org/2000/svg">
<path d="M0 21.851C3.28501 22.0442 6.24795 21.2584 8.87596 19.223C7.18837 19.0812 5.74554 18.4371 4.58613 17.2133C3.96777 16.5563 3.52977 15.8091 3.23348 14.9074C4.13524 15.0362 4.98548 15.0491 5.90013 14.8043C2.847 13.851 1.22383 11.8542 1.01771 8.63364C1.90659 9.07164 2.75683 9.34217 3.73589 9.38082C0.991943 7.07487 0.425118 4.35669 1.89371 1.09745C5.26889 5.0781 9.49431 7.22946 14.673 7.61593C14.6344 7.29387 14.6086 7.03622 14.5828 6.7657C14.3381 4.22787 15.7036 1.76733 17.9709 0.646567C20.3155 -0.499965 23.0981 -0.100611 24.9789 1.67716C25.1979 1.88327 25.3912 1.96057 25.6746 1.85751C26.615 1.50969 27.5554 1.17474 28.4958 0.82692C28.7019 0.749626 28.8952 0.620802 29.1915 0.466213C28.6762 1.9348 27.8259 3.00404 26.6021 3.80275C26.615 3.8414 26.6408 3.88004 26.6536 3.91869C27.7229 3.6224 28.805 3.33898 29.9 3.04269C29.8485 3.13287 29.7969 3.23592 29.7325 3.31322C29.024 4.2794 28.1995 5.1554 27.2333 5.86393C27.0143 6.01852 26.9499 6.18599 26.9499 6.45652C26.9113 12.5499 24.5538 17.5354 19.6972 21.2584C17.198 23.165 14.3252 24.1311 11.1948 24.4274C7.36872 24.7881 3.78742 24.041 0.463766 22.1215C0.296295 22.0442 0.154589 21.9411 0 21.851Z" fill="black"/>
</svg>
